<?xml version="1.0" encoding="utf-8"?>
<!-- Generator: Adobe Illustrator 27.9.5, SVG Export Plug-In . SVG Version: 9.03 Build 54986)  -->
<svg width="48" height="48" version="1.1" id="Layer_1" xmlns="http://www.w3.org/2000/svg" xmlns:xlink="http://www.w3.org/1999/xlink" x="0px" y="0px"
	 viewBox="0 0 48 48" style="enable-background:new 0 0 48 48;" xml:space="preserve">
<style type="text/css">
	.st0{fill:#003A51;}
</style>
<path class="st0" d="M28.1,21.3c0.6-0.6,1.1-1.8-1.2-0.3c-2.2,1.5-4.3,2.9-6.5,4.4c-0.3,0.2-0.7,0.2-1.1,0.2c-0.4,0-0.7-0.1-1.1-0.2
	c-1.4-0.4-3-1-3-1s-1.1-0.7,0.8-1.4c0,0,8-3.3,10.8-4.4c1.1-0.5,4.7-1.9,4.7-1.9s1.7-0.6,1.5,0.9c0,0.6-0.4,2.9-0.8,5.4
	c-0.6,3.5-1.2,7.2-1.2,7.2s-0.1,1.1-0.9,1.2c-0.8,0-1.7-0.3-2.3-0.8c-0.2-0.1-3.5-2.2-4.7-3.2c-0.1-0.1-0.2-0.2-0.3-0.3
	c-0.1-0.1-0.1-0.3-0.1-0.4c0-0.1,0-0.3,0.1-0.4c0.1-0.1,0.2-0.2,0.3-0.3C24.9,24.4,26.6,22.9,28.1,21.3z"/>
</svg>
