<?xml version="1.0" encoding="UTF-8"?>
<svg xmlns="http://www.w3.org/2000/svg" xmlns:xlink="http://www.w3.org/1999/xlink" version="1.1" viewBox="0 0 190 190">
  <defs>
    <style>
      .cls-1, .cls-2, .cls-3, .cls-4 {
        fill: none;
      }

      .cls-2, .cls-3, .cls-5, .cls-6, .cls-7, .cls-8, .cls-9, .cls-4 {
        stroke-linecap: round;
        stroke-linejoin: round;
      }

      .cls-2, .cls-3, .cls-6, .cls-8, .cls-9 {
        stroke: #2f3034;
      }

      .cls-2, .cls-5, .cls-6, .cls-7, .cls-8, .cls-9, .cls-4 {
        stroke-width: .4px;
      }

      .cls-3 {
        stroke-width: 1.5px;
      }

      .cls-5, .cls-7, .cls-4 {
        stroke: #9eff00;
      }

      .cls-5, .cls-10, .cls-9 {
        fill: #9eff00;
      }

      .cls-6, .cls-11 {
        fill: #fff;
      }

      .cls-7, .cls-8, .cls-12 {
        fill: #2f3034;
      }

      .cls-13 {
        clip-path: url(#clippath);
      }
    </style>
    <clipPath id="clippath">
      <rect class="cls-1" width="190" height="190"/>
    </clipPath>
  </defs>
  <!-- Generator: Adobe Illustrator 28.6.0, SVG Export Plug-In . SVG Version: 1.2.0 Build 709)  -->
  <g>
    <g id="Layer_1">
      <g class="cls-13">
        <g>
          <path class="cls-10" d="M3.8,150.9l48.6-13.8c4.9-1.4,10.1-1.4,15,0l48.6,13.8c5.1,1.5,5.1,3.8,0,5.3l-48.6,13.8c-4.9,1.4-10.1,1.4-15,0l-48.6-13.8c-5.1-1.5-5.1-3.8,0-5.3h0Z"/>
          <path class="cls-3" d="M69.6,168v-25"/>
          <path class="cls-3" d="M61.9,169.7v-26.7"/>
          <path class="cls-3" d="M50.1,167.7v-24.7"/>
          <path class="cls-3" d="M57.4,169.6v-26.5"/>
          <path class="cls-6" d="M109.5,74.5l1.2.7c1.3.7,2.2,2,2.6,3.4l.4,1.5-3.8-.8-.4-4.8h0Z"/>
          <path class="cls-8" d="M4.8,57.5l-1.5,1.5c-1.1,1.1-1.5,2.7-1.1,4.2l.4,1.8,2-2.5.2-5Z"/>
          <path class="cls-8" d="M92.2,122l-5.9-1.7-4.3,3,2.7,1.5c1.8,1,4,.7,5.5-.8l2-2h0Z"/>
          <path class="cls-9" d="M97.4,28l2.2,1.1c1.2.6,2.1,1.7,2.4,3l.7,3-4.2-2-1.1-5.1Z"/>
          <path class="cls-8" d="M82.3,49.8l16.6-17.1c1.3-1.3.9-3.5-.8-4.3l-18.7-9.1c-1-.5-2.3-.3-3.1.5l-15,15.4,18.5,10.5c1.1.6,1.9,1.7,2.2,2.9l.3,1.2h0Z"/>
          <path class="cls-9" d="M23.4,49.3l4.4,18.5,1.4.8-4.9,5L3.7,61.9c-1-.6-1.2-2-.4-2.8l26.6-27.4c.9-.9,2.2-1.1,3.3-.5l3.1,1.8-11.8,12.1c-1.1,1.1-1.5,2.7-1.1,4.2h0Z"/>
          <path class="cls-8" d="M30.8,41.2l-14.9,15.3c-1.2,1.3-.9,3.4.6,4.2l3.3,1.9c1.4.8,3.2.6,4.4-.6l14.9-15.3c1.2-1.3.9-3.4-.6-4.2l-3.3-1.9c-1.4-.8-3.2-.6-4.4.6Z"/>
          <path class="cls-6" d="M19.8,62.6c1.4.8,3.2.6,4.4-.6l14.9-15.3c.5-.5.7-1.2.7-1.8-.2-.4-.6-.8-1-1.1l-3.3-1.9c-1.4-.8-3.2-.6-4.4.6l-14.9,15.3c-.5.5-.7,1.2-.7,1.8.2.4.6.8,1,1.1l3.3,1.9Z"/>
          <path class="cls-9" d="M18.9,53.4c1.1-1.2,2.9-1.4,4.4-.6l3.3,1.9c1.5.9,1.8,3,.6,4.2l-3,3.1c-1.1,1.2-2.9,1.4-4.4.6l-3.3-1.9c-1.5-.9-1.8-3-.6-4.2l3-3.1Z"/>
          <path class="cls-9" d="M78.5,45l1.4.8c1.1.6,1.9,1.7,2.2,2.9l.5,2.2-4.2-.8v-5Z"/>
          <path class="cls-8" d="M24,51.9l-.6-2.6c-.4-1.5,0-3.1,1.1-4.2l2-2,.5,6.1-2.9,2.7h0Z"/>
          <path class="cls-8" d="M58.4,67.1c1.4.8,2.4,2.2,2.8,3.8v.2c-.4-1.7.1-3.4,1.3-4.7l.3-.3c-1.3,1.4-3.4,1.7-5.1.7l.6.3h0Z"/>
          <path class="cls-6" d="M57.8,66.7l-32-18.1c-1.5-.9-1.8-3-.6-4.2l17.1-17.6c.9-.9,2.2-1.1,3.3-.5l34,19.3c1,.6,1.2,2,.4,2.8l-17.1,17.6c-1.3,1.4-3.4,1.7-5.1.7h0Z"/>
          <path class="cls-8" d="M102.2,33.2l7.1,30c.2.9,0,1.8-.7,2.5l-5.2,5.4-18.6-10.6-2.6-10.7,16.9-17.4c1-1,2.7-.5,3,.8h0Z"/>
          <path class="cls-6" d="M96.6,69.3c-.5,0-.9-.1-1.4-.4-.8-.5-1.4-1.4-1.7-2.6-.6-2.7.4-6.3,2.3-8.3.9-.9,1.8-1.4,2.8-1.4s.9.1,1.4.4c.8.5,1.4,1.4,1.7,2.6.6,2.7-.4,6.3-2.3,8.3-.9.9-1.8,1.4-2.8,1.4Z"/>
          <path class="cls-9" d="M99.5,68.9l-3.6-1.2c-.5-.3-.9-.9-1.2-1.8-.5-2.2.3-5.3,1.9-7,.9-1,1.9-1.2,2.7-.8l3.6,1.2-3.4,9.6h0Z"/>
          <path class="cls-9" d="M98.3,67.1c.2.9.6,1.5,1.2,1.8.8.4,1.7.2,2.7-.8,1.6-1.6,2.4-4.8,1.9-7-.2-.9-.6-1.5-1.2-1.8-.8-.4-1.7-.2-2.7.8-1.6,1.6-2.4,4.8-1.9,7Z"/>
          <path class="cls-2" d="M99.8,62.5l.8,1"/>
          <path class="cls-9" d="M24.2,73.6l-19.9-11.3c-1-.6-2.3.3-2,1.5l3.7,15.4c.2.7.6,1.4,1.3,1.7l6.3,3.6,10.6-10.9Z"/>
          <path class="cls-2" d="M25.4,78.5l-22.6-12.8"/>
          <path class="cls-2" d="M26.6,83.4l-22.6-12.8"/>
          <path class="cls-2" d="M27.7,88.3l-22.6-12.8"/>
          <path class="cls-2" d="M12.8,71.3l-7.7-4.4.4,1.5c.1.5.4.9.9,1.2l6.1,3.5c.3.2.7-.1.7-.5l-.3-1.3h0Z"/>
          <path class="cls-2" d="M14,76.2l-7.7-4.4.4,1.5c.1.5.4.9.9,1.2l6.1,3.5c.3.2.7-.1.7-.5l-.3-1.3h0Z"/>
          <path class="cls-2" d="M7.4,76.8l.4,1.5c.1.5.4.9.9,1.2l6.1,3.5c.3.2.7-.1.7-.5l-.3-1.3-7.7-4.4h0Z"/>
          <path class="cls-12" d="M14,76.2l-6.9-3.9v.6c.3.5.6.9,1,1.2l6.3,3.6-.3-1.3h0Z"/>
          <path class="cls-12" d="M12.8,71.3l-6.9-3.9v.6c.3.5.6.9,1,1.2l6.3,3.6-.3-1.3h0Z"/>
          <path class="cls-12" d="M8.2,77.2v.6c.3.5.6.9,1,1.2l6.3,3.6-.3-1.3-6.9-3.9h0Z"/>
          <path class="cls-9" d="M41.2,135.4l-4.7-.3-3.4,1.6,1.4.8c1.8,1,4,.7,5.5-.8l1.3-1.3h0Z"/>
          <path class="cls-8" d="M56.2,76.7l2,8.3-4.9,5,4.7,19.6,5.3,3-22.9,23.6c-1.2,1.3-3.4.7-3.8-1l-6.7-28.2c-.4-1.5,0-3.1,1.1-4.2l25.3-26.1h0Z"/>
          <path class="cls-6" d="M86.5,67.6l-1.7-7.1-2.5-10.6c-.3-1.4-2.1-1.9-3-.8l-16.7,17.3c-1.2,1.2-1.7,3-1.3,4.7l4.3,18.2,20.9-21.6Z"/>
          <path class="cls-9" d="M9,89.3l-.7.7c-1.1,1.1-1.5,2.7-1.1,4.2l.4,1.6,2.3-2.2-.9-4.3h0Z"/>
          <path class="cls-8" d="M56.2,76.7l-22.6-12.8-24.6,25.4c-1.2,1.3-.9,3.4.6,4.2l16.5,9.4c1.8,1,4,.7,5.5-.8l24.6-25.4h0Z"/>
          <path class="cls-8" d="M29.6,106.5l6.8,28.7c.4,1.5-1.3,2.8-2.6,2l-17.6-10c-.9-.5-1.5-1.3-1.7-2.3l-7.2-30.1c-.3-1.2.9-2.1,2-1.5l18.2,10.3c1.1.6,1.9,1.7,2.2,2.9h0Z"/>
          <path class="cls-8" d="M80.9,105.7c1.3.8,3,.5,4.1-.6l-.5.5c-.8.8-1.1,2-.9,3.1v-.4c-.3-.9-.9-1.7-1.7-2.1l-1-.6h0Z"/>
          <path class="cls-9" d="M113.3,78.8l3.6,15.3c.3,1.2,0,2.5-.9,3.3l-26,26.8c-1,1-2.7.5-3-.8l-3.5-14.6c-.3-1.1,0-2.3.9-3.1l26.7-27.5c.7-.8,2-.4,2.3.6h0Z"/>
          <path class="cls-9" d="M85.1,125l-27.1-15.4-4.7-19.6,28.6,16.2c.8.5,1.4,1.2,1.6,2.1l3.6,15.2c.3,1.2-.9,2.1-2,1.5Z"/>
          <path class="cls-9" d="M84.8,60.5l25.9,14.7c1,.6,1.2,2,.4,2.8l-26.2,27.1c-1.1,1.1-2.7,1.3-4.1.6l-27.6-15.6,4.9-5,7.4,4.2,20.9-21.6-1.7-7.1h0Z"/>
          <path class="cls-6" d="M23.5,49.9l4.3,17.9,1.4.8,4.5-4.6,22.6,12.8,2,8.3,7.4,4.2-4.4-18.4c-.4-1.6-1.4-2.9-2.8-3.8l-32.9-18.7c-1-.6-2.3.3-2,1.5h0Z"/>
          <path class="cls-4" d="M18.1,92l6.5,3.7c1.1.6,2.4.4,3.3-.5l5.2-5.4c.8-.8.6-2.2-.4-2.8l-6.5-3.7c-1.1-.6-2.4-.4-3.3.5l-5.2,5.4c-.8.8-.6,2.2.4,2.8Z"/>
          <path class="cls-8" d="M68.6,47.4l-23.5-13.3c-.7-.4-1.5-.3-2,.3-.6.6-.5,1.7.3,2.1l23.5,13.3c.7.4,1.5.3,2-.3.6-.6.5-1.7-.3-2.1Z"/>
          <path class="cls-8" d="M35.1,45l23.5,13.3c.7.4,1.5.3,2-.3.6-.6.5-1.7-.3-2.1l-23.5-13.3c-.7-.4-1.5-.3-2,.3-.6.6-.5,1.7.3,2.1Z"/>
          <path class="cls-4" d="M8.3,92.7l17.8,10.1c1.8,1,4,.7,5.5-.8l24.1-24.9"/>
          <path class="cls-4" d="M32.8,100.9l-1.9,1.9c-1.1,1.1-1.5,2.7-1.1,4.2l7.1,30"/>
          <path class="cls-4" d="M82.8,49.3l17.6-18.2"/>
          <path class="cls-6" d="M60.2,41.4l.5,2c.1.4,0,.9-.3,1.3-.5.5-1.4.7-2,.3l-5.7-3.3c-.3-.2-.6-.5-.6-.9l-.5-2,8.8,2.6h0Z"/>
          <path class="cls-9" d="M52.1,39.7c-.3-.2-.6-.5-.6-.9-.1-.4,0-.9.3-1.3.5-.5,1.4-.7,2-.3l5.7,3.3c.3.2.6.5.6.9.1.4,0,.9-.3,1.3-.5.5-1.4.7-2,.3l-5.7-3.3Z"/>
          <path class="cls-6" d="M46.4,46.8l.5,2c.1.4,0,.9-.3,1.3-.5.5-1.4.7-2,.3l-5.7-3.3c-.3-.2-.6-.5-.6-.9l-.5-2,8.8,2.6h0Z"/>
          <path class="cls-9" d="M38.3,45.1c-.3-.2-.6-.5-.6-.9-.1-.4,0-.9.3-1.3.5-.5,1.4-.7,2-.3l5.7,3.3c.3.2.6.5.6.9.1.4,0,.9-.3,1.3-.5.5-1.4.7-2,.3l-5.7-3.3Z"/>
          <path class="cls-4" d="M25.2,86.2l-.4.4c-.2.2-.2.6.1.7l3.2,1.8c.4.2.8.1,1.1-.2l.4-.4c.2-.2.2-.6-.1-.7l-3.2-1.8c-.4-.2-.8-.1-1.1.2Z"/>
          <path class="cls-5" d="M44,75.3l-6.5-3.7c-1.1-.6-2.4-.4-3.3.5l-5.2,5.4c-.8.8-.6,2.2.4,2.8l6.5,3.7c1.1.6,2.4.4,3.3-.5l5.2-5.4c.8-.8.6-2.2-.4-2.8Z"/>
          <path class="cls-7" d="M39.2,83.6l5.2-5.4c.2-.2.3-.5.4-.7-.1-.1-.2-.2-.4-.3l-6.5-3.7c-1.1-.6-2.4-.4-3.3.5l-5.2,5.4c-.2.2-.3.5-.4.7.1.1.2.2.4.3l6.5,3.7c1.1.6,2.4.4,3.3-.5Z"/>
          <path class="cls-11" d="M37,76.3l-.4.4c-.2.2-.2.6.1.7l3.2,1.8c.4.2.8.1,1.1-.2l.4-.4c.2-.2.2-.6-.1-.7l-3.2-1.8c-.4-.2-.8-.1-1.1.2Z"/>
          <path class="cls-5" d="M86.9,31.1l-6.5-3.7c-1.1-.6-2.4-.4-3.3.5l-5.2,5.4c-.8.8-.6,2.2.4,2.8l6.5,3.7c1.1.6,2.4.4,3.3-.5l5.2-5.4c.8-.8.6-2.2-.4-2.8Z"/>
          <path class="cls-7" d="M82.1,39.3l5.2-5.4c.2-.2.3-.5.4-.7-.1-.1-.2-.2-.4-.3l-6.5-3.7c-1.1-.6-2.4-.4-3.3.5l-5.2,5.4c-.2.2-.3.5-.4.7.1.1.2.2.4.3l6.5,3.7c1.1.6,2.4.4,3.3-.5Z"/>
          <path class="cls-11" d="M79.8,32.1l-.4.4c-.2.2-.2.6.1.7l3.2,1.8c.4.2.8.1,1.1-.2l.4-.4c.2-.2.2-.6-.1-.7l-3.2-1.8c-.4-.2-.8-.1-1.1.2Z"/>
          <path class="cls-8" d="M68.1,69.1c-.9,1-1.3,2.3-1,3.6l1.5,6.2c.3,1.1,1.6,1.4,2.4.6.9-1,1.3-2.3,1-3.6l-1.5-6.2c-.3-1.1-1.6-1.4-2.4-.6Z"/>
          <path class="cls-10" d="M69.7,75.3c-.3.3-1.2,1.2-.7,3,.3,1.1,1.1,1.1,1.6.6.3-.3,1.2-1.2.7-3-.3-1.1-1.1-1.1-1.6-.6Z"/>
          <path class="cls-8" d="M75.6,74.8c.9-1,1.3-2.3,1-3.6l-1.5-6.2c-.3-1.1-1.6-1.4-2.4-.6-.9,1-1.3,2.3-1,3.6l1.5,6.2c.3,1.1,1.6,1.4,2.4.6Z"/>
          <path class="cls-10" d="M73.9,68.6c.3-.3,1.2-1.2.7-3-.3-1.1-1.1-1.1-1.6-.6-.3.3-1.2,1.2-.7,3,.3,1.1,1.1,1.1,1.6.6Z"/>
          <path class="cls-8" d="M77.3,59.6c-.9,1-1.3,2.3-1,3.6l1.5,6.2c.3,1.1,1.6,1.4,2.4.6.9-1,1.3-2.3,1-3.6l-1.5-6.2c-.3-1.1-1.6-1.4-2.4-.6Z"/>
          <path class="cls-10" d="M79,65.8c-.3.3-1.2,1.2-.7,3,.3,1.1,1.1,1.1,1.6.6.3-.3,1.2-1.2.7-3-.3-1.1-1.1-1.1-1.6-.6Z"/>
          <path class="cls-6" d="M93.4,55.8c-.5,0-.9-.1-1.4-.4-.8-.5-1.4-1.4-1.7-2.6-.6-2.7.4-6.3,2.3-8.3.9-.9,1.8-1.4,2.8-1.4s.9.1,1.4.4c.8.5,1.4,1.4,1.7,2.6.6,2.7-.4,6.3-2.3,8.3-.9.9-1.8,1.4-2.8,1.4Z"/>
          <path class="cls-9" d="M96.2,55.4l-3.6-1.2c-.5-.3-.9-.9-1.2-1.8-.5-2.2.3-5.3,1.9-7,.9-1,1.9-1.2,2.7-.8l3.6,1.2-3.4,9.6h0Z"/>
          <path class="cls-9" d="M95.1,53.6c.2.9.6,1.5,1.2,1.8.8.4,1.7.2,2.7-.8,1.6-1.6,2.4-4.8,1.9-7-.2-.9-.6-1.5-1.2-1.8-.8-.4-1.7-.2-2.7.8-1.6,1.6-2.4,4.8-1.9,7Z"/>
          <path class="cls-2" d="M99.1,50.4l1.1-.2"/>
          <path class="cls-12" d="M85.9,85.6l5.7,3.3.8-.2.4,1.7c.1.7,0,1.4-.7,2l-3.7,3.8c-.9.9-2.2,1.1-3.3.5l-6.4-3.6"/>
          <path class="cls-2" d="M85.9,85.6l5.7,3.3.8-.2.4,1.7c.1.7,0,1.4-.7,2l-3.7,3.8c-.9.9-2.2,1.1-3.3.5l-6.4-3.6"/>
          <path class="cls-11" d="M78.7,93l-5.1-2.9c-1.4-.8-1.6-2.4-.5-3.5l3.7-3.8c.9-.9,2.2-1.1,3.3-.5l5.8,3.3"/>
          <path class="cls-2" d="M78.7,93l-5.1-2.9c-1.4-.8-1.6-2.4-.5-3.5l3.7-3.8c.9-.9,2.2-1.1,3.3-.5l5.8,3.3"/>
          <path class="cls-6" d="M85.9,85.6l4.6,1.5c1.1.3,1.8.9,1.9,1.6.1.7-.1,1.4-.8,2.2l-3,3.1c-.9.9-2.2,1.3-3.4,1l-6.4-1.9,7.2-7.4h0Z"/>
          <path class="cls-10" d="M78.9,84.7c.2,0,.2.2.3.4,0,.2,0,.3-.2.5l-1.8,1.8c-.3.3-.7.3-1,.1h-.2c0-.1-.1-.2-.1-.2-.1,0-.2-.2-.3-.4,0-.2,0-.3.1-.5l1.8-1.9c.2-.3.6-.3.9-.1h.2c0,.1.1.2.1.2Z"/>
          <path class="cls-12" d="M94.9,76.3l5.7,3.3.8-.2.4,1.7c.1.7,0,1.4-.7,2l-3.7,3.8c-.9.9-2.2,1.1-3.3.5l-6.4-3.6"/>
          <path class="cls-2" d="M94.9,76.3l5.7,3.3.8-.2.4,1.7c.1.7,0,1.4-.7,2l-3.7,3.8c-.9.9-2.2,1.1-3.3.5l-6.4-3.6"/>
          <path class="cls-11" d="M87.7,83.8l-5.1-2.9c-1.4-.8-1.6-2.4-.5-3.5l3.7-3.8c.9-.9,2.2-1.1,3.3-.5l5.8,3.3"/>
          <path class="cls-2" d="M87.7,83.8l-5.1-2.9c-1.4-.8-1.6-2.4-.5-3.5l3.7-3.8c.9-.9,2.2-1.1,3.3-.5l5.8,3.3"/>
          <path class="cls-6" d="M94.9,76.3l4.6,1.5c1.1.3,1.8.9,1.9,1.6.1.7-.1,1.4-.8,2.2l-3,3.1c-.9.9-2.2,1.3-3.4,1l-6.4-1.9,7.2-7.4h0Z"/>
          <path class="cls-10" d="M87.9,75.5c.2,0,.2.2.3.4,0,.2,0,.3-.2.5l-1.8,1.8c-.3.3-.7.3-1,.1h-.2c0-.1-.1-.2-.1-.2-.1,0-.2-.2-.3-.4,0-.2,0-.3.1-.5l1.8-1.9c.2-.3.6-.3.9-.1h.2c0,.1.1.2.1.2Z"/>
          <path class="cls-9" d="M90,107.2c-1.4,1.4-2.1,4.2-1.6,6.2.5,2,2,2.5,3.3,1.1l4.9-5.1c1.4-1.4,2.1-4.2,1.6-6.2-.3-1.2-.9-1.8-1.6-1.9-.5,0-1.2.2-1.8.8l-4.9,5.1h0Z"/>
          <path class="cls-6" d="M95.8,101.6c-.3.1-.5.3-.8.6l-4.9,5.1c-1.4,1.4-2.1,4.2-1.6,6.2.2.7.4,1.1.8,1.5.3-.1.5-.3.8-.6l4.9-5.1c1.4-1.4,2.1-4.2,1.6-6.2-.2-.7-.4-1.1-.8-1.5Z"/>
          <path class="cls-8" d="M97.7,101.5h-1c-.5-.2-1.2,0-1.8.6l-2.1,2.2c-.4,1.3-.6,2.7-.3,3.9.3,1.2.9,1.8,1.6,1.9l1.8.3,1.8-8.9h0Z"/>
          <path class="cls-9" d="M94.3,108.5c.3,1.2.9,1.8,1.6,1.9.5,0,1.2-.2,1.8-.8,1.4-1.4,2.1-4.2,1.6-6.2-.3-1.2-.9-1.8-1.6-1.9-.5,0-1.2.2-1.8.8-1.4,1.4-2.1,4.2-1.6,6.2Z"/>
          <path class="cls-9" d="M102.9,94c-1.4,1.4-2.1,4.2-1.6,6.2.5,2,2,2.5,3.3,1.1l4.9-5.1c1.4-1.4,2.1-4.2,1.6-6.2-.3-1.2-.9-1.8-1.6-1.9-.5,0-1.2.2-1.8.8l-4.9,5.1h0Z"/>
          <path class="cls-6" d="M108.6,88.3c-.3.1-.5.3-.8.6l-4.9,5.1c-1.4,1.4-2.1,4.2-1.6,6.2.2.7.4,1.1.8,1.5.3-.1.5-.3.8-.6l4.9-5.1c1.4-1.4,2.1-4.2,1.6-6.2-.2-.7-.4-1.1-.8-1.5Z"/>
          <path class="cls-8" d="M110.5,88.3h-1c-.5-.2-1.2,0-1.8.6l-2.1,2.2c-.4,1.3-.6,2.7-.3,3.9.3,1.2.9,1.8,1.6,1.9l1.8.3,1.8-8.9h0Z"/>
          <path class="cls-9" d="M107.2,95.3c.3,1.2.9,1.8,1.6,1.9.5,0,1.2-.2,1.8-.8,1.4-1.4,2.1-4.2,1.6-6.2-.3-1.2-.9-1.8-1.6-1.9-.5,0-1.2.2-1.8.8-1.4,1.4-2.1,4.2-1.6,6.2Z"/>
          <path class="cls-10" d="M12.5,101.2c.2-.1.1-.5-.2-.9-.3-.4-.6-.6-.8-.5-.2.1-.1.5.2.9.3.4.6.6.8.5Z"/>
          <path class="cls-10" d="M16.1,103.3c.2-.1.1-.5-.2-.9s-.6-.6-.8-.5c-.2.1-.1.5.2.9.3.4.6.6.8.5Z"/>
          <path class="cls-10" d="M19.8,105.4c.2-.1.1-.5-.2-.9-.3-.4-.6-.6-.8-.5-.2.1-.1.5.2.9.3.4.6.6.8.5Z"/>
          <path class="cls-10" d="M23.4,107.4c.2-.1.1-.5-.2-.9-.3-.4-.6-.6-.8-.5-.2.1-.1.5.2.9.3.4.6.6.8.5Z"/>
          <path class="cls-10" d="M27.1,109.5c.2-.1.1-.5-.2-.9-.3-.4-.6-.6-.8-.5-.2.1-.1.5.2.9s.6.6.8.5Z"/>
          <path class="cls-10" d="M13.8,106.8c.2-.1.1-.5-.2-.9-.3-.4-.6-.6-.8-.5-.2.1-.1.5.2.9.3.4.6.6.8.5Z"/>
          <path class="cls-10" d="M17.5,108.9c.2-.1.1-.5-.2-.9-.3-.4-.6-.6-.8-.5-.2.1-.1.5.2.9.3.4.6.6.8.5Z"/>
          <path class="cls-10" d="M21.1,111c.2-.1.1-.5-.2-.9-.3-.4-.6-.6-.8-.5-.2.1-.1.5.2.9s.6.6.8.5Z"/>
          <path class="cls-10" d="M24.8,113c.2-.1.1-.5-.2-.9s-.6-.6-.8-.5c-.2.1-.1.5.2.9.3.4.6.6.8.5Z"/>
          <path class="cls-10" d="M28.4,115.1c.2-.1.1-.5-.2-.9-.3-.4-.6-.6-.8-.5-.2.1-.1.5.2.9.3.4.6.6.8.5Z"/>
          <path class="cls-10" d="M15.2,112.4c.2-.1.1-.5-.2-.9-.3-.4-.6-.6-.8-.5-.2.1-.1.5.2.9.3.4.6.6.8.5Z"/>
          <path class="cls-10" d="M18.8,114.5c.2-.1.1-.5-.2-.9-.3-.4-.6-.6-.8-.5-.2.1-.1.5.2.9.3.4.6.6.8.5Z"/>
          <path class="cls-10" d="M22.5,116.6c.2-.1.1-.5-.2-.9-.3-.4-.6-.6-.8-.5-.2.1-.1.5.2.9.3.4.6.6.8.5Z"/>
          <path class="cls-10" d="M26.1,118.7c.2-.1.1-.5-.2-.9-.3-.4-.6-.6-.8-.5-.2.1-.1.5.2.9.3.4.6.6.8.5Z"/>
          <path class="cls-10" d="M29.8,120.7c.2-.1.1-.5-.2-.9-.3-.4-.6-.6-.8-.5-.2.1-.1.5.2.9.3.4.6.6.8.5Z"/>
          <path class="cls-10" d="M16.5,118c.2-.1.1-.5-.2-.9-.3-.4-.6-.6-.8-.5-.2.1-.1.5.2.9.3.4.6.6.8.5Z"/>
          <path class="cls-10" d="M20.1,120.1c.2-.1.1-.5-.2-.9-.3-.4-.6-.6-.8-.5-.2.1-.1.5.2.9.3.4.6.6.8.5Z"/>
          <path class="cls-10" d="M23.8,122.2c.2-.1.1-.5-.2-.9s-.6-.6-.8-.5c-.2.1-.1.5.2.9.3.4.6.6.8.5Z"/>
          <path class="cls-10" d="M27.4,124.3c.2-.1.1-.5-.2-.9-.3-.4-.6-.6-.8-.5-.2.1-.1.5.2.9.3.4.6.6.8.5Z"/>
          <path class="cls-10" d="M31.1,126.3c.2-.1.1-.5-.2-.9-.3-.4-.6-.6-.8-.5-.2.1-.1.5.2.9.3.4.6.6.8.5Z"/>
          <path class="cls-10" d="M17.8,123.6c.2-.1.1-.5-.2-.9-.3-.4-.6-.6-.8-.5-.2.1-.1.5.2.9s.6.6.8.5Z"/>
          <path class="cls-10" d="M21.5,125.7c.2-.1.1-.5-.2-.9s-.6-.6-.8-.5c-.2.1-.1.5.2.9.3.4.6.6.8.5Z"/>
          <path class="cls-10" d="M25.1,127.8c.2-.1.1-.5-.2-.9-.3-.4-.6-.6-.8-.5-.2.1-.1.5.2.9.3.4.6.6.8.5Z"/>
          <path class="cls-10" d="M28.8,129.9c.2-.1.1-.5-.2-.9-.3-.4-.6-.6-.8-.5-.2.1-.1.5.2.9.3.4.6.6.8.5Z"/>
          <path class="cls-10" d="M32.4,131.9c.2-.1.1-.5-.2-.9-.3-.4-.6-.6-.8-.5-.2.1-.1.5.2.9.3.4.6.6.8.5Z"/>
          <path class="cls-5" d="M27.5,103.6c1.1.6,1.9,1.7,2.2,2.9v.5c-.2-1.5.2-3.1,1.3-4.2l.7-.7c-1.4,1.5-3.7,1.8-5.5.8l1.3.8Z"/>
          <path class="cls-6" d="M74.9,117.4l3.3-3.4c.1-.1.2-.4,0-.7-.2-.7-1-1.5-1.7-1.9-.4-.2-.7-.2-.8,0l-3.3,3.4,2.5,2.6h0Z"/>
          <path class="cls-6" d="M74.9,117.4c-.2.2-.5.2-.8,0-.7-.3-1.5-1.2-1.7-1.9-.1-.3,0-.6,0-.7.2-.2.5-.2.8,0,.7.3,1.5,1.2,1.7,1.9.1.3,0,.6,0,.7Z"/>
          <path class="cls-9" d="M72.6,118.4l1.5-1.5c0,0,0-.2,0-.3-.1-.4-.5-.8-.8-.9-.2,0-.3,0-.4,0l-1.5,1.5c0,0,0,.2,0,.3.1.4.5.8.8.9.2,0,.3,0,.4,0Z"/>
          <path class="cls-3" d="M69.6,145.1v-19.3c0-2.9.2-5.6,2.2-7.7"/>
          <path class="cls-6" d="M67.2,113.8l3.3-3.4c.1-.1.2-.4,0-.7-.2-.7-1-1.5-1.7-1.9-.4-.2-.7-.2-.8,0l-3.3,3.4,2.5,2.6h0Z"/>
          <path class="cls-6" d="M67.2,113.8c-.2.2-.5.2-.8,0-.7-.3-1.5-1.2-1.7-1.9-.1-.3,0-.6,0-.7.2-.2.5-.2.8,0,.7.3,1.5,1.2,1.7,1.9.1.3,0,.6,0,.7Z"/>
          <path class="cls-9" d="M65,114.8l1.5-1.5c0,0,0-.2,0-.3-.1-.4-.5-.8-.8-.9-.2,0-.3,0-.4,0l-1.5,1.5c0,0,0,.2,0,.3.1.4.5.8.8.9.2,0,.3,0,.4,0Z"/>
          <path class="cls-3" d="M61.9,145.1v-22.8c0-2.9.2-5.6,2.2-7.7"/>
          <path class="cls-9" d="M44.4,124l-4.3-3.1c-.2-.1-.2-.4-.2-.7.1-.8.8-1.9,1.5-2.4.4-.3.7-.3.9-.2l4.3,3.1-2.3,3.3Z"/>
          <path class="cls-6" d="M44.4,124c.2.1.5.1.9-.2.7-.5,1.4-1.6,1.5-2.4,0-.4,0-.6-.2-.7-.2-.1-.5-.1-.9.2-.7.5-1.4,1.6-1.5,2.4,0,.4,0,.6.2.7Z"/>
          <path class="cls-9" d="M47,124.7l-1.9-1.4c0,0-.1-.2,0-.4,0-.4.4-.9.8-1.2.2-.1.4-.2.5,0l1.9,1.4c0,0,.1.2,0,.4,0,.4-.4.9-.8,1.2-.2.1-.4.2-.5,0Z"/>
          <path class="cls-3" d="M50.1,145.1v-13.2c0-2.9-.2-5.6-2.2-7.7"/>
          <path class="cls-4" d="M49.9,125.8c-.3-.7-.8-1.4-1.4-2"/>
          <path class="cls-9" d="M51.7,117.1l-4.3-3.1c-.2-.1-.2-.4-.2-.7.1-.8.8-1.9,1.5-2.4.4-.3.7-.3.9-.2l4.3,3.1-2.3,3.3Z"/>
          <path class="cls-6" d="M51.7,117.1c.2.1.5.1.9-.2.7-.5,1.4-1.6,1.5-2.4,0-.4,0-.6-.2-.7-.2-.1-.5-.1-.9.2-.7.5-1.4,1.6-1.5,2.4,0,.4,0,.6.2.7Z"/>
          <path class="cls-9" d="M54.4,117.8l-1.9-1.4c0,0-.1-.2,0-.4,0-.4.4-.9.8-1.2.2-.1.4-.2.5,0l1.9,1.4c0,0,.1.2,0,.4,0,.4-.4.9-.8,1.2-.2.1-.4.2-.5,0Z"/>
          <path class="cls-3" d="M57.4,145.1v-20.1c0-2.9-.2-5.6-2.2-7.7"/>
          <path class="cls-4" d="M57.1,118.4c-.3-.5-.8-1.1-1.2-1.5"/>
          <path class="cls-10" d="M45.4,164.8l10.5,3c3,.8,6.1.8,9.1,0l8.4-2.4.5,2.7-6.5,1.8c-4.9,1.4-10.1,1.4-15,0l-10.4-2.9,3.3-2.2Z"/>
          <path class="cls-2" d="M26.3,156.2l29.6-8.4c3-.8,6.1-.8,9.1,0l29.6,8.4c3.1.9,3.1,2.3,0,3.2l-29.6,8.4c-3,.8-6.1.8-9.1,0l-29.6-8.4c-3.1-.9-3.1-2.3,0-3.2Z"/>
          <path class="cls-2" d="M17,154.2l37.7-10.7c3.8-1.1,7.8-1.1,11.6,0l37.7,10.7c4,1.1,4,3,0,4.1l-37.7,10.7c-3.8,1.1-7.8,1.1-11.6,0l-37.7-10.7c-4-1.1-4-3,0-4.1Z"/>
          <path class="cls-2" d="M3.8,150.9l48.6-13.8c4.9-1.4,10.1-1.4,15,0l48.6,13.8c5.1,1.5,5.1,3.8,0,5.3l-48.6,13.8c-4.9,1.4-10.1,1.4-15,0l-48.6-13.8c-5.1-1.5-5.1-3.8,0-5.3h0Z"/>
        </g>
      </g>
    </g>
  </g>
</svg>