<?xml version="1.0" encoding="UTF-8"?>
<svg xmlns="http://www.w3.org/2000/svg" xmlns:xlink="http://www.w3.org/1999/xlink" version="1.1" viewBox="0 0 190 190">
  <defs>
    <style>
      .cls-1, .cls-2, .cls-3, .cls-4 {
        fill: none;
      }

      .cls-2, .cls-5, .cls-3, .cls-6, .cls-7, .cls-8, .cls-9, .cls-4 {
        stroke-linecap: round;
        stroke-linejoin: round;
        stroke-width: .4px;
      }

      .cls-2, .cls-6, .cls-7, .cls-9 {
        stroke: #2f3034;
      }

      .cls-5, .cls-3, .cls-8 {
        stroke: #003a51;
      }

      .cls-5, .cls-7, .cls-10 {
        fill: #2f3034;
      }

      .cls-6 {
        fill: #fff;
      }

      .cls-11, .cls-8, .cls-9 {
        fill: #9eff00;
      }

      .cls-4 {
        stroke: #9eff00;
      }

      .cls-12 {
        clip-path: url(#clippath);
      }
    </style>
    <clipPath id="clippath">
      <rect class="cls-1" width="190" height="190"/>
    </clipPath>
  </defs>
  <!-- Generator: Adobe Illustrator 28.6.0, SVG Export Plug-In . SVG Version: 1.2.0 Build 709)  -->
  <g>
    <g id="Layer_1">
      <g class="cls-12">
        <g>
          <path class="cls-7" d="M42.4,142.9l-39.3,11.2c-4.1,1.2-4.1,3.1,0,4.2l42.3,12c3.1.9,6.5.9,9.6,0l38.1-10.8c4.1-1.2,4.1-3.1,0-4.2l-43.5-12.4c-2.4-.7-4.9-.7-7.2,0Z"/>
          <path class="cls-7" d="M69.5,96.3h-13.5v12.4h13.5v-12.4Z"/>
          <path class="cls-11" d="M101.9,84.2l4,1.1c4.3,1.2,7.2,5.1,7.2,9.5v5.1"/>
          <path class="cls-3" d="M101.9,84.2l4,1.1c4.3,1.2,7.2,5.1,7.2,9.5v5.1"/>
          <path class="cls-10" d="M13.2,100.6v-6.4c0-3.9,2.6-7.4,6.4-8.5l5.7-1.6"/>
          <path class="cls-2" d="M13.2,100.6v-6.4c0-3.9,2.6-7.4,6.4-8.5l5.7-1.6"/>
          <path class="cls-7" d="M49.7,164.6l5.3,1.5c5.1,1.4,10.5,1.4,15.6,0l9-2.6-17.2-5.9-12.7,6.9Z"/>
          <path class="cls-9" d="M70.7,99.4c-4.7,1.3-8,5.7-8,10.6v49.6c0,4.4,4.2,7.5,8.4,6.3l37.1-10.6c2.8-.8,4.8-3.4,4.8-6.3v-52.9c0-4.4-4.2-7.5-8.4-6.3l-34,9.6Z"/>
          <path class="cls-7" d="M13.2,94.9v54.3c0,3,2,5.5,4.8,6.3l36.4,10.3c4.2,1.2,8.4-2,8.4-6.3v-49.6c0-4.9-3.3-9.2-8-10.6l-34.6-9.8c-3.5-1-7,1.6-7,5.3Z"/>
          <path class="cls-2" d="M105.4,150.5c1.9-.5,3.2-2.3,3.2-4.2v-48.9c0-1.5-1.4-2.5-2.8-2.1l-33,9.4c-1.9.5-3.2,2.3-3.2,4.2v48.9c0,1.5,1.4,2.5,2.8,2.1l33-9.4Z"/>
          <path class="cls-9" d="M59.9,74.3l-39.3,11.2c-4.1,1.2-4.1,3.1,0,4.2l37.3,10.6c3.1.9,6.5.9,9.6,0l38.1-10.8c4.1-1.2,4.1-3.1,0-4.2l-38.5-10.9c-2.4-.7-4.9-.7-7.2,0Z"/>
          <path class="cls-7" d="M55.4,89.9c.5,0,.9,0,1.3-.2l18.5-5.3c.8-.2.8-.6,0-.8l-2.1-.6c-.4-.1-.9-.2-1.3-.2s-.9,0-1.3.2l-18.5,5.3c-.8.2-.8.6,0,.8l2.1.6c.4.1.9.2,1.3.2Z"/>
          <path class="cls-6" d="M86,149.5c-5.5-1.4-9.4-8.2-9.4-17.5s6.4-23.2,14.2-25.5c1.7-.5,3.3-.5,4.8-.1l4.2,1.1c5.5,1.4,9.4,8.2,9.4,17.5s-6.4,23.2-14.2,25.5c-1.7.5-3.3.5-4.8.1l-4.2-1.1Z"/>
          <path class="cls-7" d="M86,149.5l4.2,1.1c1.5.4,3.1.4,4.8-.1,3-.9,5.8-3.1,8.1-6.1l-26.1-7.4c1.1,6.7,4.5,11.4,9,12.5Z"/>
          <path class="cls-9" d="M99.8,107.5c-1.5-.4-3.1-.4-4.8.1-7.9,2.2-14.2,13.6-14.2,25.5s3.9,16.1,9.4,17.5c1.5.4,3.1.4,4.8-.1,7.9-2.2,14.2-13.6,14.2-25.5s-3.9-16.1-9.4-17.5Z"/>
          <path class="cls-11" d="M49.7,105.6s0,0,.1,0c.2,0,.4.4.4.7s-.1.4-.3.5c0,0,0,0-.1,0-.2,0-.4-.4-.4-.7s.1-.4.3-.5ZM42.8,104.2c0,.3.2.6.4.7,0,0,0,0,.1,0,.1,0,.3-.2.3-.5s-.2-.6-.4-.7c0,0,0,0-.1,0-.1,0-.3.2-.3.5ZM56.2,107.4s0,0,.1,0c.2,0,.4.4.4.7s-.1.4-.3.5c0,0,0,0-.1,0-.2,0-.4-.4-.4-.7s.1-.4.3-.5ZM36.3,102.3c0,.3.2.6.4.7,0,0,0,0,.1,0,.1,0,.3-.2.3-.5s-.2-.6-.4-.7c0,0,0,0-.1,0-.1,0-.3.2-.3.5ZM29.7,100.4c0,.3.2.6.4.7,0,0,0,0,.1,0,.1,0,.3-.2.3-.5s-.2-.6-.4-.7c0,0,0,0-.1,0-.1,0-.3.2-.3.5ZM23.1,98.6c0,.3.2.6.4.7,0,0,0,0,.1,0,.1,0,.3-.2.3-.5s-.2-.6-.4-.7c0,0,0,0-.1,0-.1,0-.3.2-.3.5ZM16.6,96.7c0,.3.2.6.4.7,0,0,0,0,.1,0,.1,0,.3-.2.3-.5s-.2-.6-.4-.7c0,0,0,0-.1,0-.1,0-.3.2-.3.5ZM49.6,157.7s0,0,.1,0c.2,0,.4.4.4.7s-.1.4-.3.5c0,0,0,0-.1,0-.2,0-.4-.4-.4-.7s.1-.4.3-.5ZM56.2,159.5s0,0,.1,0c.2,0,.4.4.4.7s-.1.4-.3.5c0,0,0,0-.1,0-.2,0-.4-.4-.4-.7s.1-.4.3-.5ZM42.8,156.3c0,.3.2.6.4.7,0,0,0,0,.1,0,.1,0,.3-.2.3-.5s-.2-.6-.4-.7c0,0,0,0-.1,0-.1,0-.3.2-.3.5ZM36.3,154.4c0,.3.2.6.4.7,0,0,0,0,.1,0,.1,0,.3-.2.3-.5s-.2-.6-.4-.7c0,0,0,0-.1,0-.1,0-.3.2-.3.5ZM29.7,152.5c0,.3.2.6.4.7,0,0,0,0,.1,0,.1,0,.3-.2.3-.5s-.2-.6-.4-.7c0,0,0,0-.1,0-.1,0-.3.2-.3.5ZM23.1,150.7c0,.3.2.6.4.7,0,0,0,0,.1,0,.1,0,.3-.2.3-.5s-.2-.6-.4-.7c0,0,0,0-.1,0-.1,0-.3.2-.3.5ZM16.5,148.8c0,.3.2.6.4.7,0,0,0,0,.1,0,.1,0,.3-.2.3-.5s-.2-.6-.4-.7c0,0,0,0-.1,0-.1,0-.3.2-.3.5ZM56,145.1c0,.3.2.6.4.7,0,0,0,0,.1,0,.1,0,.3-.2.3-.5s-.2-.6-.4-.7c0,0,0,0-.1,0-.1,0-.3.2-.3.5ZM56,152.6c0,.3.2.6.4.7,0,0,0,0,.1,0,.1,0,.3-.2.3-.5s-.2-.6-.4-.7c0,0,0,0-.1,0-.1,0-.3.2-.3.5ZM56.2,114.9s0,0,.1,0c.2,0,.4.4.4.7s-.1.4-.3.5c0,0,0,0-.1,0-.2,0-.4-.4-.4-.7s.1-.4.3-.5ZM56,122.8c0,.3.2.6.4.7,0,0,0,0,.1,0,.1,0,.3-.2.3-.5s-.2-.6-.4-.7c0,0,0,0-.1,0-.1,0-.3.2-.3.5ZM56,130.2c0,.3.2.6.4.7,0,0,0,0,.1,0,.1,0,.3-.2.3-.5s-.2-.6-.4-.7c0,0,0,0-.1,0-.1,0-.3.2-.3.5ZM56,137.7c0,.3.2.6.4.7,0,0,0,0,.1,0,.1,0,.3-.2.3-.5s-.2-.6-.4-.7c0,0,0,0-.1,0-.1,0-.3.2-.3.5ZM49.4,143.3c0,.3.2.6.4.7,0,0,0,0,.1,0,.1,0,.3-.2.3-.5s-.2-.6-.4-.7c0,0,0,0-.1,0-.1,0-.3.2-.3.5ZM49.4,150.7c0,.3.2.6.4.7,0,0,0,0,.1,0,.1,0,.3-.2.3-.5s-.2-.6-.4-.7c0,0,0,0-.1,0-.1,0-.3.2-.3.5ZM49.6,113s0,0,.1,0c.2,0,.4.4.4.7s-.1.4-.3.5c0,0,0,0-.1,0-.2,0-.4-.4-.4-.7s.1-.4.3-.5ZM49.4,120.9c0,.3.2.6.4.7,0,0,0,0,.1,0,.1,0,.3-.2.3-.5s-.2-.6-.4-.7c0,0,0,0-.1,0-.1,0-.3.2-.3.5ZM49.4,128.4c0,.3.2.6.4.7,0,0,0,0,.1,0,.1,0,.3-.2.3-.5s-.2-.6-.4-.7c0,0,0,0-.1,0-.1,0-.3.2-.3.5ZM49.4,135.8c0,.3.2.6.4.7,0,0,0,0,.1,0,.1,0,.3-.2.3-.5s-.2-.6-.4-.7c0,0,0,0-.1,0-.1,0-.3.2-.3.5ZM42.8,141.4c0,.3.2.6.4.7,0,0,0,0,.1,0,.1,0,.3-.2.3-.5s-.2-.6-.4-.7c0,0,0,0-.1,0-.1,0-.3.2-.3.5ZM42.8,148.8c0,.3.2.6.4.7,0,0,0,0,.1,0,.1,0,.3-.2.3-.5s-.2-.6-.4-.7c0,0,0,0-.1,0-.1,0-.3.2-.3.5ZM43.1,111.2s0,0,.1,0c.2,0,.4.4.4.7s-.1.4-.3.5c0,0,0,0-.1,0-.2,0-.4-.4-.4-.7s.1-.4.3-.5ZM42.8,119.1c0,.3.2.6.4.7,0,0,0,0,.1,0,.1,0,.3-.2.3-.5s-.2-.6-.4-.7c0,0,0,0-.1,0-.1,0-.3.2-.3.5ZM42.8,126.5c0,.3.2.6.4.7,0,0,0,0,.1,0,.1,0,.3-.2.3-.5s-.2-.6-.4-.7c0,0,0,0-.1,0-.1,0-.3.2-.3.5ZM42.8,134c0,.3.2.6.4.7,0,0,0,0,.1,0,.1,0,.3-.2.3-.5s-.2-.6-.4-.7c0,0,0,0-.1,0-.1,0-.3.2-.3.5ZM36.3,139.5c0,.3.2.6.4.7,0,0,0,0,.1,0,.1,0,.3-.2.3-.5s-.2-.6-.4-.7c0,0,0,0-.1,0-.1,0-.3.2-.3.5ZM36.3,147c0,.3.2.6.4.7,0,0,0,0,.1,0,.1,0,.3-.2.3-.5s-.2-.6-.4-.7c0,0,0,0-.1,0-.1,0-.3.2-.3.5ZM36.5,109.3s0,0,.1,0c.2,0,.4.4.4.7s-.1.4-.3.5c0,0,0,0-.1,0-.2,0-.4-.4-.4-.7s.1-.4.3-.5ZM36.3,117.2c0,.3.2.6.4.7,0,0,0,0,.1,0,.1,0,.3-.2.3-.5s-.2-.6-.4-.7c0,0,0,0-.1,0-.1,0-.3.2-.3.5ZM36.3,124.7c0,.3.2.6.4.7,0,0,0,0,.1,0,.1,0,.3-.2.3-.5s-.2-.6-.4-.7c0,0,0,0-.1,0-.1,0-.3.2-.3.5ZM36.3,132.1c0,.3.2.6.4.7,0,0,0,0,.1,0,.1,0,.3-.2.3-.5s-.2-.6-.4-.7c0,0,0,0-.1,0-.1,0-.3.2-.3.5ZM29.7,137.7c0,.3.2.6.4.7,0,0,0,0,.1,0,.1,0,.3-.2.3-.5s-.2-.6-.4-.7c0,0,0,0-.1,0-.1,0-.3.2-.3.5ZM29.7,145.1c0,.3.2.6.4.7,0,0,0,0,.1,0,.1,0,.3-.2.3-.5s-.2-.6-.4-.7c0,0,0,0-.1,0-.1,0-.3.2-.3.5ZM29.9,107.4s0,0,.1,0c.2,0,.4.4.4.7s-.1.4-.3.5c0,0,0,0-.1,0-.2,0-.4-.4-.4-.7s.1-.4.3-.5ZM29.7,115.3c0,.3.2.6.4.7,0,0,0,0,.1,0,.1,0,.3-.2.3-.5s-.2-.6-.4-.7c0,0,0,0-.1,0-.1,0-.3.2-.3.5ZM29.7,122.8c0,.3.2.6.4.7,0,0,0,0,.1,0,.1,0,.3-.2.3-.5s-.2-.6-.4-.7c0,0,0,0-.1,0-.1,0-.3.2-.3.5ZM29.7,130.2c0,.3.2.6.4.7,0,0,0,0,.1,0,.1,0,.3-.2.3-.5s-.2-.6-.4-.7c0,0,0,0-.1,0-.1,0-.3.2-.3.5ZM23.1,135.8c0,.3.2.6.4.7,0,0,0,0,.1,0,.1,0,.3-.2.3-.5s-.2-.6-.4-.7c0,0,0,0-.1,0-.1,0-.3.2-.3.5ZM23.1,143.2c0,.3.2.6.4.7,0,0,0,0,.1,0,.1,0,.3-.2.3-.5s-.2-.6-.4-.7c0,0,0,0-.1,0-.1,0-.3.2-.3.5ZM23.4,105.6s0,0,.1,0c.2,0,.4.4.4.7s-.1.4-.3.5c0,0,0,0-.1,0-.2,0-.4-.4-.4-.7s.1-.4.3-.5ZM23.1,113.5c0,.3.2.6.4.7,0,0,0,0,.1,0,.1,0,.3-.2.3-.5s-.2-.6-.4-.7c0,0,0,0-.1,0-.1,0-.3.2-.3.5ZM23.1,120.9c0,.3.2.6.4.7,0,0,0,0,.1,0,.1,0,.3-.2.3-.5s-.2-.6-.4-.7c0,0,0,0-.1,0-.1,0-.3.2-.3.5ZM23.1,128.4c0,.3.2.6.4.7,0,0,0,0,.1,0,.1,0,.3-.2.3-.5s-.2-.6-.4-.7c0,0,0,0-.1,0-.1,0-.3.2-.3.5ZM16.5,133.9c0,.3.2.6.4.7,0,0,0,0,.1,0,.1,0,.3-.2.3-.5s-.2-.6-.4-.7c0,0,0,0-.1,0-.1,0-.3.2-.3.5ZM16.5,141.4c0,.3.2.6.4.7,0,0,0,0,.1,0,.1,0,.3-.2.3-.5s-.2-.6-.4-.7c0,0,0,0-.1,0-.1,0-.3.2-.3.5ZM16.8,103.7s0,0,.1,0c.2,0,.4.4.4.7s-.1.4-.3.5c0,0,0,0-.1,0-.2,0-.4-.4-.4-.7s.1-.4.3-.5ZM16.5,111.6c0,.3.2.6.4.7,0,0,0,0,.1,0,.1,0,.3-.2.3-.5s-.2-.6-.4-.7c0,0,0,0-.1,0-.1,0-.3.2-.3.5ZM16.5,119.1c0,.3.2.6.4.7,0,0,0,0,.1,0,.1,0,.3-.2.3-.5s-.2-.6-.4-.7c0,0,0,0-.1,0-.1,0-.3.2-.3.5ZM16.5,126.5c0,.3.2.6.4.7,0,0,0,0,.1,0,.1,0,.3-.2.3-.5s-.2-.6-.4-.7c0,0,0,0-.1,0-.1,0-.3.2-.3.5Z"/>
          <path class="cls-6" d="M86.8,132.1c0,7.8,4.2,12.9,9.4,11.4,5.2-1.5,9.4-9,9.4-16.8s-2.5-10.5-6.1-11.5c-1-.3-2.1-.3-3.3,0-5.2,1.5-9.4,9-9.4,16.8Z"/>
          <path class="cls-7" d="M104.8,121.7c-1-3.3-2.9-5.7-5.4-6.3-1-.3-2.1-.3-3.3,0-1.5.4-2.9,1.4-4.2,2.7l12.8,3.7h0Z"/>
          <path class="cls-9" d="M103.5,126.2c0-5.4-2.1-9.6-5-11.1-.7,0-1.5,0-2.3.2-5.2,1.5-9.4,9-9.4,16.8s2,9.6,5,11.1c.7,0,1.5,0,2.3-.2,5.2-1.5,9.4-9,9.4-16.8h0Z"/>
          <path class="cls-8" d="M89.9,131.2c0,4.6,2.1,7.8,5,7.9.4,0,.9,0,1.3-.2,3.5-1,6.3-6,6.3-11.3s-1.3-6.3-3.2-7.4c-.3-.2-.6-.3-.9-.4-.7-.2-1.4-.2-2.2,0-3.5,1-6.3,6-6.3,11.3h0Z"/>
          <path class="cls-9" d="M95.8,132.4c0,4,1.9,6.7,4.3,6.8.4,0,.7,0,1.1-.1,3-.9,5.5-5.2,5.5-9.8s-1.1-5.4-2.8-6.4c-.2-.1-.5-.2-.8-.3-.6-.2-1.2-.2-1.9,0-3,.9-5.5,5.2-5.5,9.8Z"/>
          <path class="cls-6" d="M104,123c-.2-.1-.5-.2-.8-.3-.6-.2-1.2-.2-1.9,0-3,.9-5.5,5.2-5.5,9.8s1.9,6.7,4.3,6.8l-5.3-.2c-2.8,0-5-3.3-5-7.9s2.8-10.3,6.3-11.3c.8-.2,1.5-.2,2.2,0,.3,0,.6.2.9.4l4.7,2.7h0Z"/>
          <path class="cls-7" d="M94.9,139.1l5.3.2c-1.8,0-3.2-1.5-3.9-3.7l-6.1-1.7c.6,3.1,2.5,5.2,4.7,5.3h0Z"/>
          <path class="cls-6" d="M73.2,111.8l-1.1-.3c-.2,0-.4,0-.7,0l-2.8.8c-.9.3-1.6,1.1-1.6,2.1s.2.7.5,1c.1,0,.3.2.4.2l1.1.3,4.2-4h0Z"/>
          <path class="cls-7" d="M67.5,115.3c.1,0,.3.2.4.2l1.1.3.7-.7-2.7-.8c0,.4.2.7.5.9h0Z"/>
          <path class="cls-9" d="M72.5,111.8c.2,0,.4,0,.7,0,.1,0,.3.1.4.2.3.2.5.6.5,1,0,1-.6,1.8-1.6,2.1l-2.8.8c-.2,0-.4,0-.7,0-.1,0-.3-.1-.4-.2-.3-.2-.5-.6-.5-1,0-1,.6-1.8,1.6-2.1l2.8-.8Z"/>
          <path class="cls-6" d="M73.2,150.1l-1.1-.3c-.2,0-.4,0-.7,0l-2.8.8c-.9.3-1.6,1.1-1.6,2.1s.2.7.5,1c.1,0,.3.2.4.2l1.1.3,4.2-4h0Z"/>
          <path class="cls-7" d="M67.5,153.6c.1,0,.3.2.4.2l1.1.3.7-.7-2.7-.8c0,.4.2.7.5.9h0Z"/>
          <path class="cls-9" d="M72.5,150.1c.2,0,.4,0,.7,0,.1,0,.3.1.4.2.3.2.5.6.5,1,0,1-.6,1.8-1.6,2.1l-2.8.8c-.2,0-.4,0-.7,0-.1,0-.3-.1-.4-.2-.3-.2-.5-.6-.5-1,0-1,.6-1.8,1.6-2.1l2.8-.8Z"/>
          <path class="cls-9" d="M36.8,40.2l-2.3-1.7c-2.8-2-2.2-7.8,1.2-12.9,3.5-5.2,8.7-7.9,11.6-5.9h.1c0,0,2.3,1.7,2.3,1.7l-13,18.8h0Z"/>
          <path class="cls-7" d="M37.7,38.8l-.2-4-4.6-2.3c-.4,2.6.1,4.9,1.6,6l2.3,1.7.9-1.3Z"/>
          <path class="cls-6" d="M38,27.2c-3.5,5.2-4,10.9-1.2,12.9,0,0,0,0,.1,0,2.9,1.9,8.1-.7,11.6-5.9,3.5-5.2,4-10.9,1.2-12.9,0,0,0,0-.1,0-2.9-1.9-8.1.7-11.6,5.9Z"/>
          <path class="cls-9" d="M71,70.1v2.9c0,4.1-3.5,8-8.7,9.3-6.1,1.4-12.2-1.3-13.7-6.2,0,0,0-.1,0-.2-.2-.7-.3-1.3-.3-2v-2.9l22.7-.9Z"/>
          <path class="cls-7" d="M48.3,74c0,.7,0,1.3.3,2,0,0,0,.1,0,.2.3,1.1.9,2.1,1.7,2.9l-.8-4.1.5-4.1h-1.6v3Z"/>
          <path class="cls-6" d="M62.3,79.4c5.2-1.2,8.7-5.1,8.7-9.3s0-1.3-.3-2c0,0,0-.1,0-.2-1.5-4.9-7.6-7.6-13.7-6.2-5.2,1.2-8.7,5.1-8.7,9.3s0,1.3.3,2c0,0,0,.1,0,.2,1.5,4.9,7.6,7.6,13.7,6.2Z"/>
          <path class="cls-7" d="M57,61.7c-5.2,1.2-8.7,5.1-8.7,9.3s0,1.3.3,2c0,0,0,.1,0,.2.2.6.4,1.1.7,1.7l14.4-13c-2.1-.6-4.5-.7-6.8-.1Z"/>
          <path class="cls-11" d="M60.2,30.4l-1.9-2h0s0,0,0,0c-1-1.1-5.7,1.2-10.5,5.2-4.8,4-8,8.3-7,9.4,0,0,0,0,0,0l1.9,2,17.5-14.7Z"/>
          <path class="cls-2" d="M58.4,28.4l1.9,2-17.5,14.7-1.9-2s0,0,0,0c-1-1.2,2.1-5.4,7-9.4,4.8-4,9.5-6.3,10.5-5.2ZM58.4,28.4h0s0,0,0,0Z"/>
          <path class="cls-7" d="M45.2,41.2l-2.2-2.9c-1.9,2.2-2.8,4-2.2,4.7,0,0,0,0,0,0l1.9,2,2.3-2v-1.9Z"/>
          <path class="cls-7" d="M49.7,35.6c-4.8,4-8,8.3-7,9.4,0,0,0,0,0,0,1,1.1,5.7-1.2,10.5-5.2,4.8-4,8-8.3,7-9.4,0,0,0,0,0,0-1-1.1-5.7,1.2-10.5,5.2Z"/>
          <path class="cls-11" d="M70,54.5l.4,2.8c0,0,0,.1,0,.2.3,3.5-4.5,6.8-10.8,7.3-6.2.6-11.4-1.7-11.9-5.1,0,0,0-.1,0-.2v.2s-.4-2.8-.4-2.8l22.7-2.5Z"/>
          <path class="cls-2" d="M47.7,59.8c.5,3.4,5.8,5.6,11.9,5.1,6.3-.6,11.1-3.8,10.8-7.3,0,0,0-.1,0-.2l-.4-2.8-22.7,2.5.4,2.8ZM47.7,59.8c0,0,0-.1,0-.2v.2Z"/>
          <path class="cls-5" d="M48.9,59.6l8.9-3.8-10.5,1.1.4,2.8c.1.9.6,1.6,1.2,2.3v-2.5c0,0,0,0,0,0Z"/>
          <path class="cls-6" d="M59.2,62c6.3-.6,11.1-3.9,10.8-7.3,0,0,0-.1,0-.2-.5-3.4-5.8-5.6-11.9-5.1-6.3.6-11.1,3.9-10.8,7.3,0,0,0,.1,0,.2.5,3.4,5.8,5.6,11.9,5.1Z"/>
          <path class="cls-7" d="M58.1,49.4c-6.3.6-11.1,3.9-10.8,7.3,0,0,0,.1,0,.2.1,1,.7,1.9,1.6,2.7l19-8.1c-2.2-1.6-5.8-2.4-9.9-2.1Z"/>
          <path class="cls-9" d="M44.4,48.5l.8,2.7s0,0,0,0c.6,1.8,5.9,1.7,11.9-.3,6-2,10.3-5,9.8-6.8,0,0,0,0,0,0h0s-.8-2.7-.8-2.7l-21.7,7.1h0Z"/>
          <path class="cls-7" d="M45.3,51.2s0,0,0,0c.3.9,1.7,1.3,3.7,1.3l-.9-4.6h-.3c0,.1,0-.5,0-.5l-3.2,1.1.8,2.7h0Z"/>
          <path class="cls-6" d="M54.2,41.7c-6,2-10.3,5-9.8,6.8,0,0,0,0,0,0,.6,1.8,5.9,1.7,11.9-.3,6-2,10.3-5,9.8-6.8,0,0,0,0,0,0-.6-1.8-5.9-1.7-11.9.3Z"/>
          <path class="cls-4" d="M13.8,152c.8,1.7,2.3,3.1,4.2,3.6l36.4,10.3c3.5,1,7.1-1.1,8.1-4.3"/>
          <path class="cls-4" d="M54.9,166.1c3.4,1,6.9,1.3,10.4,1"/>
          <path class="cls-4" d="M18.5,89.4c-2.3,0-4.3,1.6-5,3.7"/>
          <path class="cls-4" d="M62.4,107.3c-.7-2.8-2.6-5.3-5.1-6.8"/>
        </g>
      </g>
    </g>
  </g>
</svg>