<?xml version="1.0" encoding="UTF-8"?>
<svg xmlns="http://www.w3.org/2000/svg" version="1.1" viewBox="0 0 191 190">
  <defs>
    <style>
      .cls-1, .cls-2, .cls-3, .cls-4, .cls-5, .cls-6, .cls-7, .cls-8 {
        stroke-linecap: round;
        stroke-linejoin: round;
      }

      .cls-1, .cls-2, .cls-3, .cls-5, .cls-8 {
        fill: none;
      }

      .cls-1, .cls-2, .cls-4, .cls-5, .cls-6, .cls-7, .cls-8 {
        stroke-width: .4px;
      }

      .cls-1, .cls-4, .cls-6, .cls-7 {
        stroke: #2f3034;
      }

      .cls-9 {
        fill: #003a51;
      }

      .cls-2, .cls-3 {
        stroke: #003a51;
      }

      .cls-4, .cls-10 {
        fill: #fff;
      }

      .cls-5 {
        stroke: #fff;
      }

      .cls-6, .cls-11 {
        fill: #2f3034;
      }

      .cls-12, .cls-7 {
        fill: #9eff00;
      }

      .cls-8 {
        stroke: #9eff00;
      }
    </style>
  </defs>
  <!-- Generator: Adobe Illustrator 28.6.0, SVG Export Plug-In . SVG Version: 1.2.0 Build 709)  -->
  <g>
    <g id="Layer_1">
      <path class="cls-6" d="M48.7,140.6c0,0-.1,0-.2,0l-41.6-12c-5-1.4-5.8-4-5.9-5.4,0-2.5,2.1-4.8,5.6-6l36.7-12.6c.3-.1.7,0,.8.4.1.3,0,.7-.4.8l-36.7,12.6c-2.9,1-4.8,2.9-4.7,4.8,0,1.8,1.9,3.3,5,4.2l41.6,12c.3,0,.5.4.4.8,0,.3-.3.4-.6.4h0Z"/>
      <path class="cls-7" d="M98.8,139.6c-4.4-1.3-9.1-1.3-13.6,0l-31.4,8.9c-7.8,2.2-7.8,5.8,0,8l47.3,13.4c4.8,1.4,9.9,1.4,14.7,0l30.8-8.8c7.8-2.2,7.8-5.8,0-8l-47.9-13.6h0Z"/>
      <path class="cls-4" d="M57.9,153.9c2,.7,5.2.7,7.2,0,1-.4,1.5-.9,1.5-1.3s-.5-1-1.5-1.3c-2-.7-5.2-.7-7.2,0-1,.4-1.5.8-1.5,1.3s.5,1,1.5,1.3Z"/>
      <path class="cls-11" d="M52.1,110.7l-33,9.4c-4.6,1.3-4.6,3.4,0,4.8l20.9,6.1"/>
      <path class="cls-1" d="M52.1,110.7l-33,9.4c-4.6,1.3-4.6,3.4,0,4.8l20.9,6.1"/>
      <path class="cls-4" d="M121.2,121.1v.8c0,.4-.3.8-.7.9l-50.9,14.5c-2.6.7-5.3.7-7.9,0l-26.6-7.7c-6.3-1.8-8.8-9.3-5.1-14.6l12.3-17.3c2.8-3.9,3.4-8.9,1.7-13.3l-8.6-22.4c-.8-2.1-.6-4.4.6-6.3l5.8-8.3,51.6,62.9,27.5,10.9h0Z"/>
      <path class="cls-4" d="M93.7,110.1l26.1,9.8c1,.3,1.5.8,1.5,1.2s-.5.8-1.5,1.1l-49.6,14.1c-2.3.7-4.8.6-7.1-.2l-28-9.6c-3.9-1.4-4.8-6.7-2.4-10.1l12-16.8c2.2-3.1,7-2.1,9.6-1.1l39.6,11.6h0Z"/>
      <path class="cls-6" d="M108.3,115.6l-14.6-5.5-39.6-11.6c-2.5-1-7.3-2-9.6,1.1l-12,16.8c-2.4,3.4-1.5,8.7,2.4,10.1l15.9,5.4,57.4-16.3h0Z"/>
      <path class="cls-6" d="M107,132.4c-1.2,0-2.2-.2-3-.7-1.8-1.1-2.3-3.3-2.8-5.9-.3-1.5-.7-3.3-1.4-5-.1-.3,0-.7.3-.8.3-.1.7,0,.8.3.8,1.8,1.1,3.6,1.4,5.2.5,2.4.9,4.3,2.2,5.1,1.3.8,3.6.7,7.2-.3l23.1-6.4c4.1-1.2,6.8-2.6,6.8-4.5s-1-2.6-4.4-3.8l-19-6.5c-.3-.1-.5-.5-.4-.8.1-.3.5-.5.8-.4l19,6.5c3.1,1.1,5.3,2.7,5.3,5.1s-2.4,4.1-7.7,5.6l-23.1,6.4c-2.1.6-3.8.9-5.2.9Z"/>
      <path class="cls-4" d="M143.3,155.3l.2,2.2c0,.4-.4.9-1.4,1.1l-1.8.5c-1.3.4-2.6.4-3.9,0l-8.4-2.4,15.2-1.4Z"/>
      <path class="cls-6" d="M128.5,156.8l8,2.3c.5.1,1,.2,1.5.2v-3.1l-2.3-.5-7.2.9h0Z"/>
      <path class="cls-4" d="M128.1,156.7l-4.6-1.3c-1.8-.5-1.8-1.6,0-2.2l1.8-.5c1.3-.4,2.6-.4,3.9,0l6.4,1.8,7,.3c.4,0,.7.2.7.4,0,.2-.2.4-.6.5l-3.5,1c-1.1.3-2.2.4-3.3.3l-7.8-.4h0Z"/>
      <path class="cls-1" d="M135.6,154.6l-7.5,2.1"/>
      <path class="cls-12" d="M124.9,154.5c-.4-.1-.4-.4,0-.5l2.4-.7c.3,0,.7,0,1,0h.5c.5.3.5.5,0,.7l-2.4.7c-.3,0-.7,0-1,0l-.5-.2Z"/>
      <path class="cls-4" d="M132.8,158.3l.2,2.2c0,.4-.4.9-1.4,1.1l-1.8.5c-1.3.4-2.6.4-3.9,0l-8.4-2.4,15.2-1.4Z"/>
      <path class="cls-6" d="M118,159.8l8,2.3c.5.1,1,.2,1.5.2v-3.1l-2.3-.5-7.2.9h0Z"/>
      <path class="cls-4" d="M117.6,159.7l-4.6-1.3c-1.8-.5-1.8-1.6,0-2.2l1.8-.5c1.3-.4,2.6-.4,3.9,0l6.4,1.8,7,.3c.4,0,.7.2.7.4,0,.2-.2.4-.6.5l-3.5,1c-1.1.3-2.2.4-3.3.3l-7.8-.4h0Z"/>
      <path class="cls-1" d="M125.1,157.5l-7.5,2.1"/>
      <path class="cls-12" d="M114.4,157.5c-.4-.1-.4-.4,0-.5l2.4-.7c.3,0,.7,0,1,0h.5c.5.3.5.5,0,.7l-2.4.7c-.3,0-.7,0-1,0l-.5-.2Z"/>
      <path class="cls-6" d="M76.2,146.1s-.1,0-.3-.1c-.2,0-.3,0-.3,0,0,0,.1,0,.3.1.2,0,.3,0,.3,0Z"/>
      <path class="cls-6" d="M78.5,145.4c0,0-.1,0-.3-.1-.2,0-.3,0-.3,0,0,0,.1,0,.3.1.2,0,.3,0,.3,0Z"/>
      <path class="cls-6" d="M80.9,144.8s-.1,0-.3-.1c-.2,0-.3,0-.3,0,0,0,.1,0,.3.1.2,0,.3,0,.3,0Z"/>
      <path class="cls-6" d="M83.2,144.1s-.1,0-.3-.1c-.2,0-.3,0-.3,0,0,0,.1,0,.3.1.2,0,.3,0,.3,0Z"/>
      <path class="cls-6" d="M85.5,143.4s-.1,0-.3-.1c-.2,0-.3,0-.3,0,0,0,.1,0,.3.1.2,0,.3,0,.3,0Z"/>
      <path class="cls-6" d="M87.8,142.8c0,0-.1,0-.3-.1-.2,0-.3,0-.3,0,0,0,.1,0,.3.1.2,0,.3,0,.3,0Z"/>
      <path class="cls-6" d="M90.1,142.1c0,0-.1,0-.3-.1-.2,0-.3,0-.3,0,0,0,.1,0,.3.1.2,0,.3,0,.3,0Z"/>
      <path class="cls-6" d="M76.8,147.6c0,0-.1,0-.3-.1-.2,0-.3,0-.3,0,0,0,.1,0,.3.1.2,0,.3,0,.3,0Z"/>
      <path class="cls-6" d="M79.1,146.9c0,0-.1,0-.3-.1-.2,0-.3,0-.3,0s.1,0,.3.1c.2,0,.3,0,.3,0Z"/>
      <path class="cls-6" d="M81.5,146.2s-.1,0-.3-.1c-.2,0-.3,0-.3,0,0,0,.1,0,.3.1.2,0,.3,0,.3,0Z"/>
      <path class="cls-6" d="M83.8,145.6c0,0-.1,0-.3-.1-.2,0-.3,0-.3,0s.1,0,.3.1c.2,0,.3,0,.3,0Z"/>
      <path class="cls-6" d="M86.1,144.9s-.1,0-.3-.1c-.2,0-.3,0-.3,0,0,0,.1,0,.3.1.2,0,.3,0,.3,0Z"/>
      <path class="cls-6" d="M88.4,144.3c0,0-.1,0-.3-.1-.2,0-.3,0-.3,0,0,0,.1,0,.3.1.2,0,.3,0,.3,0Z"/>
      <path class="cls-6" d="M90.7,143.6s-.1,0-.3-.1c-.2,0-.3,0-.3,0,0,0,.1,0,.3.1.2,0,.3,0,.3,0Z"/>
      <path class="cls-6" d="M93.1,142.9s-.1,0-.3-.1c-.2,0-.3,0-.3,0,0,0,.1,0,.3.1.2,0,.3,0,.3,0Z"/>
      <path class="cls-6" d="M95.4,142.3c0,0-.1,0-.3-.1-.2,0-.3,0-.3,0,0,0,.1,0,.3.1.2,0,.3,0,.3,0Z"/>
      <path class="cls-6" d="M79.7,148.4c0,0-.1,0-.3-.1-.2,0-.3,0-.3,0,0,0,.1,0,.3.1.2,0,.3,0,.3,0Z"/>
      <path class="cls-6" d="M82.1,147.7c0,0-.1,0-.3-.1-.2,0-.3,0-.3,0,0,0,.1,0,.3.1.2,0,.3,0,.3,0Z"/>
      <path class="cls-6" d="M84.4,147.1s-.1,0-.3-.1c-.2,0-.3,0-.3,0,0,0,.1,0,.3.1s.3,0,.3,0Z"/>
      <path class="cls-6" d="M86.7,146.4c0,0-.1,0-.3-.1-.2,0-.3,0-.3,0,0,0,.1,0,.3.1.2,0,.3,0,.3,0Z"/>
      <path class="cls-6" d="M89,145.8s-.1,0-.3-.1c-.2,0-.3,0-.3,0,0,0,.1,0,.3.1.2,0,.3,0,.3,0Z"/>
      <path class="cls-6" d="M91.3,145.1c0,0-.1,0-.3-.1-.2,0-.3,0-.3,0,0,0,.1,0,.3.1.2,0,.3,0,.3,0Z"/>
      <path class="cls-6" d="M93.6,144.4s-.1,0-.3-.1c-.2,0-.3,0-.3,0,0,0,.1,0,.3.1.2,0,.3,0,.3,0Z"/>
      <path class="cls-6" d="M96,143.8s-.1,0-.3-.1c-.2,0-.3,0-.3,0,0,0,.1,0,.3.1.2,0,.3,0,.3,0Z"/>
      <path class="cls-6" d="M98.3,143.1s-.1,0-.3-.1c-.2,0-.3,0-.3,0,0,0,.1,0,.3.1.2,0,.3,0,.3,0Z"/>
      <path class="cls-6" d="M82.7,149.2s-.1,0-.3-.1c-.2,0-.3,0-.3,0,0,0,.1,0,.3.1.2,0,.3,0,.3,0Z"/>
      <path class="cls-6" d="M85,148.6s-.1,0-.3-.1c-.2,0-.3,0-.3,0,0,0,.1,0,.3.1.2,0,.3,0,.3,0Z"/>
      <path class="cls-6" d="M87.3,147.9s-.1,0-.3-.1c-.2,0-.3,0-.3,0,0,0,.1,0,.3.1.2,0,.3,0,.3,0Z"/>
      <path class="cls-6" d="M89.6,147.2s-.1,0-.3-.1c-.2,0-.3,0-.3,0,0,0,.1,0,.3.1.2,0,.3,0,.3,0Z"/>
      <path class="cls-6" d="M91.9,146.6s-.1,0-.3-.1c-.2,0-.3,0-.3,0,0,0,.1,0,.3.1.2,0,.3,0,.3,0Z"/>
      <path class="cls-6" d="M94.3,145.9s-.1,0-.3-.1c-.2,0-.3,0-.3,0,0,0,.1,0,.3.1.2,0,.3,0,.3,0Z"/>
      <path class="cls-6" d="M96.6,145.3s-.1,0-.3-.1c-.2,0-.3,0-.3,0,0,0,.1,0,.3.1.2,0,.3,0,.3,0Z"/>
      <path class="cls-6" d="M98.9,144.6c0,0-.1,0-.3-.1-.2,0-.3,0-.3,0s.1,0,.3.1c.2,0,.3,0,.3,0Z"/>
      <path class="cls-6" d="M101.2,143.9c0,0-.1,0-.3-.1-.2,0-.3,0-.3,0,0,0,.1,0,.3.1.2,0,.3,0,.3,0Z"/>
      <path class="cls-6" d="M85.6,150.1c0,0-.1,0-.3-.1-.2,0-.3,0-.3,0,0,0,.1,0,.3.1.2,0,.3,0,.3,0Z"/>
      <path class="cls-6" d="M87.9,149.4s-.1,0-.3-.1c-.2,0-.3,0-.3,0,0,0,.1,0,.3.1.2,0,.3,0,.3,0Z"/>
      <path class="cls-6" d="M90.2,148.7s-.1,0-.3-.1c-.2,0-.3,0-.3,0,0,0,.1,0,.3.1.2,0,.3,0,.3,0Z"/>
      <path class="cls-6" d="M92.5,148.1s-.1,0-.3-.1c-.2,0-.3,0-.3,0,0,0,.1,0,.3.1.2,0,.3,0,.3,0Z"/>
      <path class="cls-6" d="M94.9,147.4s-.1,0-.3-.1c-.2,0-.3,0-.3,0,0,0,.1,0,.3.1.2,0,.3,0,.3,0Z"/>
      <path class="cls-6" d="M97.2,146.8s-.1,0-.3-.1c-.2,0-.3,0-.3,0,0,0,.1,0,.3.1.2,0,.3,0,.3,0Z"/>
      <path class="cls-6" d="M99.5,146.1s-.1,0-.3-.1c-.2,0-.3,0-.3,0,0,0,.1,0,.3.1.2,0,.3,0,.3,0Z"/>
      <path class="cls-6" d="M101.8,145.4s-.1,0-.3-.1c-.2,0-.3,0-.3,0,0,0,.1,0,.3.1.2,0,.3,0,.3,0Z"/>
      <path class="cls-6" d="M104.1,144.8c0,0-.1,0-.3-.1-.2,0-.3,0-.3,0,0,0,.1,0,.3.1.2,0,.3,0,.3,0Z"/>
      <path class="cls-6" d="M88.5,150.9s-.1,0-.3-.1c-.2,0-.3,0-.3,0,0,0,.1,0,.3.1.2,0,.3,0,.3,0Z"/>
      <path class="cls-6" d="M90.8,150.2c0,0-.1,0-.3-.1-.2,0-.3,0-.3,0,0,0,.1,0,.3.1.2,0,.3,0,.3,0Z"/>
      <path class="cls-6" d="M93.1,149.6c0,0-.1,0-.3-.1-.2,0-.3,0-.3,0,0,0,.1,0,.3.1.2,0,.3,0,.3,0Z"/>
      <path class="cls-6" d="M95.4,148.9s-.1,0-.3-.1c-.2,0-.3,0-.3,0,0,0,.1,0,.3.1.2,0,.3,0,.3,0Z"/>
      <path class="cls-6" d="M97.8,148.2s-.1,0-.3-.1c-.2,0-.3,0-.3,0,0,0,.1,0,.3.1.2,0,.3,0,.3,0Z"/>
      <path class="cls-6" d="M100.1,147.6c0,0-.1,0-.3-.1-.2,0-.3,0-.3,0s.1,0,.3.1c.2,0,.3,0,.3,0Z"/>
      <path class="cls-6" d="M102.4,146.9s-.1,0-.3-.1c-.2,0-.3,0-.3,0,0,0,.1,0,.3.1.2,0,.3,0,.3,0Z"/>
      <path class="cls-6" d="M104.7,146.3c0,0-.1,0-.3-.1-.2,0-.3,0-.3,0,0,0,.1,0,.3.1.2,0,.3,0,.3,0Z"/>
      <path class="cls-6" d="M107,145.6s-.1,0-.3-.1c-.2,0-.3,0-.3,0,0,0,.1,0,.3.1.2,0,.3,0,.3,0Z"/>
      <path class="cls-6" d="M91.4,151.7s-.1,0-.3-.1c-.2,0-.3,0-.3,0,0,0,.1,0,.3.1.2,0,.3,0,.3,0Z"/>
      <path class="cls-6" d="M93.7,151.1c0,0-.1,0-.3-.1-.2,0-.3,0-.3,0s.1,0,.3.1c.2,0,.3,0,.3,0Z"/>
      <path class="cls-6" d="M96.1,150.4c0,0-.1,0-.3-.1-.2,0-.3,0-.3,0,0,0,.1,0,.3.1.2,0,.3,0,.3,0Z"/>
      <path class="cls-6" d="M98.4,149.7c0,0-.1,0-.3-.1-.2,0-.3,0-.3,0,0,0,.1,0,.3.1.2,0,.3,0,.3,0Z"/>
      <path class="cls-6" d="M100.7,149.1s-.1,0-.3-.1c-.2,0-.3,0-.3,0,0,0,.1,0,.3.1.2,0,.3,0,.3,0Z"/>
      <path class="cls-6" d="M103,148.4c0,0-.1,0-.3-.1-.2,0-.3,0-.3,0,0,0,.1,0,.3.1.2,0,.3,0,.3,0Z"/>
      <path class="cls-6" d="M105.3,147.8c0,0-.1,0-.3-.1-.2,0-.3,0-.3,0s.1,0,.3.1c.2,0,.3,0,.3,0Z"/>
      <path class="cls-6" d="M107.6,147.1s-.1,0-.3-.1c-.2,0-.3,0-.3,0,0,0,.1,0,.3.1.2,0,.3,0,.3,0Z"/>
      <path class="cls-6" d="M110,146.4s-.1,0-.3-.1c-.2,0-.3,0-.3,0,0,0,.1,0,.3.1s.3,0,.3,0Z"/>
      <path class="cls-6" d="M94.3,152.5s-.1,0-.3-.1c-.2,0-.3,0-.3,0,0,0,.1,0,.3.1.2,0,.3,0,.3,0Z"/>
      <path class="cls-6" d="M96.6,151.9s-.1,0-.3-.1c-.2,0-.3,0-.3,0,0,0,.1,0,.3.1.2,0,.3,0,.3,0Z"/>
      <path class="cls-6" d="M99,151.2c0,0-.1,0-.3-.1-.2,0-.3,0-.3,0,0,0,.1,0,.3.1.2,0,.3,0,.3,0Z"/>
      <path class="cls-6" d="M101.3,150.6c0,0-.1,0-.3-.1-.2,0-.3,0-.3,0s.1,0,.3.1c.2,0,.3,0,.3,0Z"/>
      <path class="cls-6" d="M103.6,149.9c0,0-.1,0-.3-.1-.2,0-.3,0-.3,0,0,0,.1,0,.3.1.2,0,.3,0,.3,0Z"/>
      <path class="cls-6" d="M105.9,149.2s-.1,0-.3-.1c-.2,0-.3,0-.3,0,0,0,.1,0,.3.1s.3,0,.3,0Z"/>
      <path class="cls-6" d="M108.2,148.6c0,0-.1,0-.3-.1-.2,0-.3,0-.3,0s.1,0,.3.1c.2,0,.3,0,.3,0Z"/>
      <path class="cls-6" d="M110.6,147.9s-.1,0-.3-.1c-.2,0-.3,0-.3,0,0,0,.1,0,.3.1.2,0,.3,0,.3,0Z"/>
      <path class="cls-6" d="M112.9,147.3s-.1,0-.3-.1c-.2,0-.3,0-.3,0,0,0,.1,0,.3.1.2,0,.3,0,.3,0Z"/>
      <path class="cls-6" d="M97.3,153.4s-.1,0-.3-.1c-.2,0-.3,0-.3,0,0,0,.1,0,.3.1.2,0,.3,0,.3,0Z"/>
      <path class="cls-6" d="M99.6,152.7c0,0-.1,0-.3-.1-.2,0-.3,0-.3,0,0,0,.1,0,.3.1.2,0,.3,0,.3,0Z"/>
      <path class="cls-6" d="M101.9,152.1c0,0-.1,0-.3-.1-.2,0-.3,0-.3,0s.1,0,.3.1c.2,0,.3,0,.3,0Z"/>
      <path class="cls-6" d="M104.2,151.4s-.1,0-.3-.1c-.2,0-.3,0-.3,0,0,0,.1,0,.3.1.2,0,.3,0,.3,0Z"/>
      <path class="cls-6" d="M106.5,150.7c0,0-.1,0-.3-.1-.2,0-.3,0-.3,0,0,0,.1,0,.3.1.2,0,.3,0,.3,0Z"/>
      <path class="cls-6" d="M108.8,150.1c0,0-.1,0-.3-.1-.2,0-.3,0-.3,0,0,0,.1,0,.3.1s.3,0,.3,0Z"/>
      <path class="cls-6" d="M111.2,149.4c0,0-.1,0-.3-.1-.2,0-.3,0-.3,0,0,0,.1,0,.3.1s.3,0,.3,0Z"/>
      <path class="cls-6" d="M113.5,148.8c0,0-.1,0-.3-.1-.2,0-.3,0-.3,0,0,0,.1,0,.3.1.2,0,.3,0,.3,0Z"/>
      <path class="cls-6" d="M115.8,148.1s-.1,0-.3-.1c-.2,0-.3,0-.3,0,0,0,.1,0,.3.1s.3,0,.3,0Z"/>
      <path class="cls-6" d="M100.2,154.2c0,0-.1,0-.3-.1-.2,0-.3,0-.3,0s.1,0,.3.1c.2,0,.3,0,.3,0Z"/>
      <path class="cls-6" d="M102.5,153.5s-.1,0-.3-.1c-.2,0-.3,0-.3,0,0,0,.1,0,.3.1.2,0,.3,0,.3,0Z"/>
      <path class="cls-6" d="M104.8,152.9s-.1,0-.3-.1-.3,0-.3,0c0,0,.1,0,.3.1.2,0,.3,0,.3,0Z"/>
      <path class="cls-6" d="M107.1,152.2c0,0-.1,0-.3-.1-.2,0-.3,0-.3,0,0,0,.1,0,.3.1.2,0,.3,0,.3,0Z"/>
      <path class="cls-6" d="M109.4,151.6c0,0-.1,0-.3-.1-.2,0-.3,0-.3,0,0,0,.1,0,.3.1.2,0,.3,0,.3,0Z"/>
      <path class="cls-6" d="M111.8,150.9c0,0-.1,0-.3-.1s-.3,0-.3,0c0,0,.1,0,.3.1.2,0,.3,0,.3,0Z"/>
      <path class="cls-6" d="M114.1,150.2s-.1,0-.3-.1c-.2,0-.3,0-.3,0,0,0,.1,0,.3.1.2,0,.3,0,.3,0Z"/>
      <path class="cls-6" d="M116.4,149.6s-.1,0-.3-.1c-.2,0-.3,0-.3,0,0,0,.1,0,.3.1.2,0,.3,0,.3,0Z"/>
      <path class="cls-6" d="M118.7,148.9s-.1,0-.3-.1c-.2,0-.3,0-.3,0,0,0,.1,0,.3.1s.3,0,.3,0Z"/>
      <path class="cls-6" d="M103.1,155s-.1,0-.3-.1c-.2,0-.3,0-.3,0,0,0,.1,0,.3.1.2,0,.3,0,.3,0Z"/>
      <path class="cls-6" d="M105.4,154.4c0,0-.1,0-.3-.1-.2,0-.3,0-.3,0,0,0,.1,0,.3.1.2,0,.3,0,.3,0Z"/>
      <path class="cls-6" d="M107.7,153.7c0,0-.1,0-.3-.1-.2,0-.3,0-.3,0,0,0,.1,0,.3.1.2,0,.3,0,.3,0Z"/>
      <path class="cls-6" d="M110,153.1s-.1,0-.3-.1c-.2,0-.3,0-.3,0,0,0,.1,0,.3.1.2,0,.3,0,.3,0Z"/>
      <path class="cls-6" d="M112.4,152.4s-.1,0-.3-.1c-.2,0-.3,0-.3,0,0,0,.1,0,.3.1.2,0,.3,0,.3,0Z"/>
      <path class="cls-6" d="M114.7,151.7s-.1,0-.3-.1c-.2,0-.3,0-.3,0,0,0,.1,0,.3.1.2,0,.3,0,.3,0Z"/>
      <path class="cls-6" d="M117,151.1s-.1,0-.3-.1c-.2,0-.3,0-.3,0,0,0,.1,0,.3.1.2,0,.3,0,.3,0Z"/>
      <path class="cls-6" d="M119.3,150.4c0,0-.1,0-.3-.1-.2,0-.3,0-.3,0,0,0,.1,0,.3.1.2,0,.3,0,.3,0Z"/>
      <path class="cls-6" d="M121.6,149.8s-.1,0-.3-.1c-.2,0-.3,0-.3,0,0,0,.1,0,.3.1.2,0,.3,0,.3,0Z"/>
      <path class="cls-6" d="M108.3,155.2c0,0-.1,0-.3-.1-.2,0-.3,0-.3,0,0,0,.1,0,.3.1.2,0,.3,0,.3,0Z"/>
      <path class="cls-6" d="M110.6,154.5s-.1,0-.3-.1-.3,0-.3,0c0,0,.1,0,.3.1.2,0,.3,0,.3,0Z"/>
      <path class="cls-6" d="M113,153.9s-.1,0-.3-.1c-.2,0-.3,0-.3,0,0,0,.1,0,.3.1.2,0,.3,0,.3,0Z"/>
      <path class="cls-6" d="M115.3,153.2s-.1,0-.3-.1c-.2,0-.3,0-.3,0,0,0,.1,0,.3.1.2,0,.3,0,.3,0Z"/>
      <path class="cls-6" d="M117.6,152.6s-.1,0-.3-.1-.3,0-.3,0c0,0,.1,0,.3.1.2,0,.3,0,.3,0Z"/>
      <path class="cls-6" d="M119.9,151.9s-.1,0-.3-.1c-.2,0-.3,0-.3,0,0,0,.1,0,.3.1.2,0,.3,0,.3,0Z"/>
      <path class="cls-6" d="M122.2,151.2c0,0-.1,0-.3-.1-.2,0-.3,0-.3,0,0,0,.1,0,.3.1.2,0,.3,0,.3,0Z"/>
      <path class="cls-4" d="M100.7,121.8l-1.6.3c-.9.2-1.8-.3-2.1-1.2l-1.9-4.9,4.8-1.9,1.9,5.1-1.2,2.7h0Z"/>
      <path class="cls-7" d="M101.6,113.8l1.9,5.1c.4,1-.2,2.2-1.3,2.5l-1.3.4c0,0-.1,0-.2,0-.9.2-1.8-.3-2.1-1.2l-1.9-4.9,4.8-1.9h0Z"/>
      <path class="cls-6" d="M131.9,101.5l-30.3-79.5c-.9-2.3-3.4-3.5-5.7-2.9l-59.4,17.1c-1.2.3-2.1,1.1-2.7,2,0,0,0,0,0,0-.2.2-1.2,1.9-1.4,2.3,0,0,0,0,0,0-.2.2-.3.5-.4.8-.4,1-.4,2.2,0,3.4l29.6,77.6c.8,2,2.7,3.2,4.7,3,.2,0,.4,0,.7,0,.1,0,2-.4,2.2-.5.1,0,.2,0,.3,0l59.4-17.1c1.2-.3,2.1-1.1,2.7-2,.8-1.2,1-2.8.4-4.2h0Z"/>
      <path class="cls-6" d="M95.8,19.2c2.4-.7,4.8.6,5.7,2.9l30.3,79.5c.6,1.5.3,3-.4,4.2-.6,1-1.5,1.7-2.7,2l-24.1,6.9-35.3,10.2c-.1,0-.2,0-.3,0-.2,0-.4,0-.7,0-2,.1-4-1.1-4.7-3l-30.3-79.5c-.2-.7-.3-1.3-.3-2,0-.5.1-1,.3-1.4.1-.3.2-.5.4-.8,0,0,0,0,0,0,.6-1,1.5-1.7,2.7-2l59.4-17.1h0Z"/>
      <path class="cls-8" d="M94.7,117.6l-25.3,7.3c-.1,0-.2,0-.3,0-.2,0-.4,0-.7,0-2,.1-4-1.1-4.7-3l-30.3-79.5c-.2-.7-.3-1.3-.3-2"/>
      <path class="cls-8" d="M104.7,114.7l-1.8.5"/>
      <path class="cls-8" d="M52.9,100.1l8.5,22.4c.8,2,2.7,3.2,4.7,3,.2,0,.4,0,.7,0,.1,0,2-.4,2.2-.5"/>
      <path class="cls-7" d="M68.1,122c-.7,0-1.3-.4-1.6-1.1l-30.3-79.5c-.2-.5-.1-.9,0-1.2,0-.1,0-.2.2-.3.2-.2.4-.6,1-.7l59.4-17.1c.2,0,.3,0,.5,0,.7,0,1.3.4,1.6,1.1l30.3,79.5c.2.5.1,1-.2,1.5-.2.2-.5.6-1,.7l-59.4,17.1c-.2,0-.3,0-.5,0h0Z"/>
      <path class="cls-10" d="M82.2,66.4l-24.7,7c-1.5.4-2.3,2-1.7,3.5l8.9,23.4c.5,1.3,1.9,2,3.2,1.6l24.6-7c1.5-.4,2.3-2,1.7-3.5l-8.9-23.4c-.5-1.3-1.9-2-3.2-1.6h0Z"/>
      <path class="cls-10" d="M105,60l-15.2,4.3c-.9.3-1.4,1.2-1.1,2.1l5.5,14.4c.3.8,1.1,1.2,2,1l15.2-4.3c.9-.3,1.4-1.2,1.1-2.1l-5.5-14.4c-.3-.8-1.2-1.2-2-1Z"/>
      <path class="cls-10" d="M104.8,84.6l-6.6,1.9c-.4.1-.6.5-.5.9l2.4,6.3c.1.3.5.5.8.4l6.6-1.9c.4-.1.6-.5.5-.9l-2.4-6.3c-.1-.3-.5-.5-.8-.4Z"/>
      <path class="cls-10" d="M114.3,81.9l-6.6,1.9c-.4.1-.6.5-.5.9l2.4,6.3c.1.3.5.5.9.4l6.6-1.9c.4-.1.6-.5.5-.9l-2.4-6.3c-.1-.3-.5-.5-.8-.4Z"/>
      <path class="cls-10" d="M74.3,34.7l-28,8c-1.7.5-2.6,2.3-2,3.9l7.9,20.4c.6,1.5,2.1,2.2,3.6,1.8l28-8c1.7-.5,2.6-2.3,2-3.9l-7.9-20.4c-.6-1.5-2.1-2.2-3.6-1.8Z"/>
      <path class="cls-12" d="M70.5,41.3l-16.7,4.7c-1,.3-1.6,1.4-1.2,2.4l4.4,11.5c.3.9,1.3,1.3,2.2,1.1l16.7-4.7c1-.3,1.6-1.4,1.2-2.4l-4.4-11.5c-.3-.9-1.3-1.3-2.2-1.1Z"/>
      <path class="cls-6" d="M92.8,29.3l-9,2.6c-1.2.3-1.8,1.6-1.4,2.8l.5,1.4c.4,1,1.5,1.6,2.6,1.3l9-2.6c1.2-.3,1.8-1.6,1.4-2.8l-.5-1.4c-.4-1-1.5-1.6-2.6-1.3Z"/>
      <path class="cls-6" d="M106,99.6l-20.8,5.9c-.8.2-1.2,1-.9,1.8l1,2.5c.2.6.9,1,1.6.8l20.8-5.9c.8-.2,1.2-1,.9-1.8l-1-2.5c-.2-.6-.9-1-1.6-.8Z"/>
      <path class="cls-2" d="M93.9,93.1l-2.1-1.8c-1.7-1.9-7-2-9.6-1.9-.4,0-.7-.2-.8-.6l-.2-.5c0-.1,0-.2,0-.3,0,0-.4-2.8-.4-3.3,0,0-.2-.3,0-.3,1-.6.5-2.7.2-3.5l-.7-.2c0-1.3-1.3-5.2-1.4-5.6-.2-.4-1.1-1.2-1.5-1.4-1.3-.4-2.4-1.6-3.3-1.6-.9,0-1.6-.6-4.3.5-2.6,1.1-2,4-2.2,4-1,.2-1.4,1.9-.9,3,.5,1.1,2.4,4.2,2.8,4.4l-.4.4c.3.8,1.4,2.7,2.5,2.7h.3c.5,1,1,1.8,1.5,2.5h0c.2.5.4,1,.6,1.4.2.4,0,.8-.3,1-2.2,1.3-7,4.6-6.8,7l-.2,2.4"/>
      <path class="cls-5" d="M97.3,107.3l-1.7-4.4"/>
      <path class="cls-10" d="M83.9,34.8c.3.9,1.3,1.4,2.2,1.2.9-.3,1.3-1.2,1-2.1-.3-.9-1.3-1.4-2.2-1.2-.9.3-1.3,1.2-1,2.1Z"/>
      <path class="cls-6" d="M95.5,36.2l-9,2.6c-1.2.3-1.8,1.6-1.4,2.8l.5,1.4c.4,1,1.5,1.6,2.6,1.3l9-2.6c1.2-.3,1.8-1.6,1.4-2.8l-.5-1.4c-.4-1-1.5-1.6-2.6-1.3Z"/>
      <path class="cls-10" d="M86.5,41.7c.3.9,1.3,1.4,2.2,1.2.9-.3,1.3-1.2,1-2.1-.3-.9-1.3-1.4-2.2-1.2-.9.3-1.3,1.2-1,2.1Z"/>
      <path class="cls-6" d="M98.1,43.2l-9,2.6c-1.2.3-1.8,1.6-1.4,2.8l.5,1.4c.4,1,1.5,1.6,2.6,1.3l9-2.6c1.2-.3,1.8-1.6,1.4-2.8l-.5-1.4c-.4-1-1.5-1.6-2.6-1.3Z"/>
      <path class="cls-10" d="M89.2,48.7c.3.9,1.3,1.4,2.2,1.2.9-.3,1.3-1.2,1-2.1-.3-.9-1.3-1.4-2.2-1.2-.9.3-1.3,1.2-1,2.1Z"/>
      <path class="cls-12" d="M98.5,65.5c3.1-.9,6.5,1,7.7,4.1,1.2,3.1-.3,6.4-3.4,7.3-3.1.9-6.5-1-7.7-4.1-1.2-3.1.3-6.4,3.4-7.3ZM95.7,72.6c1.1,2.8,4.2,4.4,6.9,3.7,2.7-.8,4.1-3.7,3-6.5-1.1-2.8-4.2-4.4-6.9-3.7-2.7.8-4.1,3.7-3,6.5h0Z"/>
      <path class="cls-6" d="M100.8,50.2l-9,2.6c-1.2.3-1.8,1.6-1.4,2.8l.5,1.4c.4,1,1.5,1.6,2.6,1.3l9-2.6c1.2-.3,1.8-1.6,1.4-2.8l-.5-1.4c-.4-1-1.5-1.6-2.6-1.3Z"/>
      <path class="cls-10" d="M91.8,55.7c.3.9,1.3,1.4,2.2,1.2.9-.3,1.3-1.2,1-2.1-.3-.9-1.3-1.4-2.2-1.2-.9.3-1.3,1.2-1,2.1Z"/>
      <path class="cls-3" d="M53.5,59.7c2.7-.8-.7-6,2.7-7.1,1.6-.5,3.5,3,4.9,2.3,2.1-.9-.7-7.2,1.6-8.1,2.8-1.1,3.9,6.4,7.1,5.7,3.1-.7-1.9-10.4,4-11.7"/>
      <path class="cls-9" d="M98.5,65.5c-3.1.9-4.6,4.1-3.4,7.3,1.1,2.9,4.2,4.7,7.1,4.2.5,0,.2-.7-.2-.6-2.6.4-5.3-1.2-6.3-3.8-1.1-2.8.3-5.7,3-6.5,2.4-.7,5.1.5,6.4,2.8.2.3.8.1.6-.2-1.5-2.6-4.5-3.9-7.3-3.2h0Z"/>
      <path class="cls-4" d="M71.2,151.2c-5.7,0-5.7-2.6,0-2.6s5.7,2.6,0,2.6Z"/>
      <path class="cls-10" d="M64.5,145.8v6.6c0,.3-.3.6-.9.8-1.2.4-3.1.4-4.3,0-.6-.2-.9-.5-.9-.8v-6.6"/>
      <path class="cls-1" d="M64.5,145.8v6.6c0,.3-.3.6-.9.8-1.2.4-3.1.4-4.3,0-.6-.2-.9-.5-.9-.8v-6.6"/>
      <path class="cls-6" d="M61.6,146.3l-1.3-.5h-1.9v6.6c0,.3.3.6.9.8.6.2,1.4.3,2.3.3v-7.2h0Z"/>
      <path class="cls-4" d="M59.3,146.6c1.2.4,3.1.4,4.3,0,.6-.2.9-.5.9-.8s-.3-.6-.9-.8c-1.2-.4-3.1-.4-4.3,0-.6.2-.9.5-.9.8s.3.6.9.8Z"/>
      <path class="cls-12" d="M63.5,143.5v2.1c0,.1-.2.3-.6.4-.8.2-2.1.2-2.9,0-.4-.1-.6-.3-.6-.4v-2.1"/>
      <path class="cls-1" d="M63.5,143.5v2.1c0,.1-.2.3-.6.4-.8.2-2.1.2-2.9,0-.4-.1-.6-.3-.6-.4v-2.1"/>
      <path class="cls-6" d="M60.7,146.1v-2.6s-1.3,0-1.3,0v2.1c0,.1.2.3.6.4.2,0,.5,0,.7.1h0Z"/>
      <path class="cls-7" d="M60,143.9c.8.2,2.1.2,2.9,0,.4-.1.6-.3.6-.4s-.2-.3-.6-.4c-.8-.2-2.1-.2-2.9,0-.4.1-.6.3-.6.4s.2.3.6.4Z"/>
      <path class="cls-6" d="M74.3,149.2c0-.7-1.4-1.3-3-1.3s-3,.6-3,1.3v.2c0,.4,1.4.8,3,.8s3-.3,3-.8v-.2h0Z"/>
      <path class="cls-10" d="M71.6,148.4c.9,0,1.4.3,1.7.5.7.5-.6.6-.9.4-.3-.2-1.5-.9-.8-.9h0Z"/>
      <path class="cls-4" d="M84.8,153.1c-2.5-.7-5.1-.7-7.5,0l-7.9,2.2c-1.6.5-1.6,1.2,0,1.7l35,10c2.7.8,5.5.8,8.2,0l7.6-2.1c1.6-.5,1.6-1.2,0-1.7l-35.3-10Z"/>
      <path class="cls-6" d="M81.6,155.5c-.7-.2-2.4-.2-3.1,0-.7.2-.6.7.2.9l28.9,8.2c1.3.4,2.9.5,3.7.2.9-.2.5-.7-.8-1.1l-28.9-8.2Z"/>
      <path class="cls-6" d="M97,159.4c.1,0,.2-.2.2-.3v-1.7c0-.7-1-1.8-1-2.5v-3.5c.1-.7-.4-1.4-1.1-1.6-.2,0-.3,0-.5,0l-6.1,1.7c0,0-.2,0-.3.1-.2.2-.3.4-.3.7,0,1.8.1,3.2.1,3.7,0,1.2-1,1.3-1,1.9v1.7c0,.1,0,.2.2.3l3.4,1c.2,0,.3,0,.5,0l5.6-1.6Z"/>
      <path class="cls-10" d="M92,160.8c-.2,0-.4,0-.6-.1-.2-.1-.3-.3-.3-.5v-1c0-.7-1-1.8-1-2.5v-3.5c.1-.7-.4-1.4-1.1-1.6-.2,0-.3,0-.5,0l6.1-1.7c.1,0,.3,0,.5,0,.7.2,1.2.9,1.2,1.6v3.5c-.1.7.8,1.8.8,2.5v1.7c0,.1,0,.2-.2.3l-5,1.4h0Z"/>
      <path class="cls-12" d="M91.7,150.7c.7.2,1.2.9,1.2,1.6v3c-.1.1,0,.2,0,.3,0,0,.2,0,.3,0,.2,0,.4-.2.4-.5v-3.1c.1-.7-.4-1.4-1.1-1.6l-.8.2h0Z"/>
      <path class="cls-1" d="M92,160.8c-.2,0-.4,0-.6-.1-.2-.1-.3-.3-.3-.5v-1c0-.7-1-1.8-1-2.5v-3.5c.1-.7-.4-1.4-1.1-1.6-.2,0-.3,0-.5,0l6.1-1.7c.1,0,.3,0,.5,0,.7.2,1.2.9,1.2,1.6v3.5c-.1.7.8,1.8.8,2.5v1.7c0,.1,0,.2-.2.3l-5,1.4h0Z"/>
      <path class="cls-1" d="M92.1,159l3.9-1.1"/>
      <path class="cls-6" d="M52,143.7h0c-.3,0-.6-.4-.5-.7.7-5.2,3.6-7.4,6-7.2,2.3.2,4.7,2.6,4.7,7.3s-.3.4-.6.4-.6,0-.6-.4c0-3.9-1.8-6-3.5-6.1-1.9-.1-4.2,1.8-4.7,6.1,0,.3-.3.5-.6.5h0Z"/>
      <path class="cls-6" d="M53.2,146.6c-.3,0-.6,0-.9-.3-.5-.3-1.2-1.2-.9-3.4,0-.3.4-.6.7-.5.3,0,.6.4.5.7-.2,1.3,0,2,.4,2.2.1,0,.2,0,.4,0,.2-.1.5-.4.5-.9,0-1.6-1.7-2.8-5.6-3.9-.3,0-.5-.4-.4-.8,0-.3.4-.5.8-.4,3.2.9,6.5,2.2,6.5,5.1s-.4,1.7-1.1,2c-.2.1-.5.2-.8.2h0Z"/>
    </g>
  </g>
</svg>