<svg width="457" height="238" viewBox="0 0 457 238" fill="none" xmlns="http://www.w3.org/2000/svg">
<path fill-rule="evenodd" clip-rule="evenodd" d="M0 0H456L456.008 237.935L290.758 0.0584717H218.461L129.812 179.536L82.5 114.317C82.9141 114.005 82.9141 113.869 83.3203 113.538C107.133 94.02 116.047 61.2108 96.4297 33.7531L72.3906 0.0875244L0 0ZM80.5859 111.485L0 0V238H456L456.008 237.935H377.953L259.25 64.7428L173.172 237.935H99.8281L64.2969 191.728C55.0234 181.424 48.7344 162.927 50.5703 150.541C53.1562 133 65.2266 123.531 78.1094 113.431L80.5859 111.485Z" fill="white"/>
</svg>
