<?xml version="1.0" encoding="UTF-8"?>
<svg width="211" height="112" xmlns="http://www.w3.org/2000/svg" xmlns:xlink="http://www.w3.org/1999/xlink" version="1.1" viewBox="0 0 211 112">
  <defs>
    <style>
      .cls-1 {
        fill: url(#linear-gradient-5);
      }

      .cls-2 {
        fill: url(#linear-gradient-6);
      }

      .cls-3 {
        fill: url(#linear-gradient-4);
      }

      .cls-4 {
        fill: url(#linear-gradient-3);
      }

      .cls-5 {
        fill: url(#linear-gradient-2);
      }

      .cls-6 {
        fill: url(#linear-gradient);
      }

      .cls-7 {
        fill: #bccab4;
      }
    </style>
    <linearGradient id="linear-gradient" x1="657.1" y1="1076.1" x2="934.6" y2="804.5" gradientTransform="translate(172.9 249.5) rotate(-180) scale(.2)" gradientUnits="userSpaceOnUse">
      <stop offset="0" stop-color="#204515"/>
      <stop offset=".5" stop-color="#69c888"/>
      <stop offset="1" stop-color="#1c3813"/>
    </linearGradient>
    <linearGradient id="linear-gradient-2" x1="428.7" y1="1051.7" x2="476.3" y2="1519.5" xlink:href="#linear-gradient"/>
    <linearGradient id="linear-gradient-3" x1="378.8" y1="1008" x2="305.4" y2="605.6" xlink:href="#linear-gradient"/>
    <linearGradient id="linear-gradient-4" x1="508.3" y1="964.1" x2="902.7" y2="577.6" xlink:href="#linear-gradient"/>
    <linearGradient id="linear-gradient-5" x1="799.6" y1="1233.4" x2="252.6" y2="880.6" xlink:href="#linear-gradient"/>
    <linearGradient id="linear-gradient-6" x1="935.7" y1="1192.4" x2="499.6" y2="1420.4" xlink:href="#linear-gradient"/>
  </defs>
  <!-- Generator: Adobe Illustrator 28.6.0, SVG Export Plug-In . SVG Version: 1.2.0 Build 709)  -->
  <g>
    <g id="Layer_1">
      <g>
        <path class="cls-7" d="M11.8,46.8h24c4.5,12.6,16,21.9,29.9,22.9.9,0,1.8.1,2.7.1H18l-6.2-23.1Z"/>
        <polygon class="cls-7" points="71 .7 94.9 .7 101.1 23.8 101.6 25.9 101.9 26.9 107.2 46.8 83.4 46.8 79.5 32.6 79.4 31.9 77.2 23.8 71.1 .9 71 .7"/>
        <polygon class="cls-7" points="89.6 69.9 113.4 69.9 116.5 81.4 122.7 104.5 98.8 104.5 92.6 81.4 89.6 69.9"/>
        <polygon class="cls-7" points="21 81.4 80.7 81.4 86.9 104.5 27.2 104.5 21 81.4"/>
        <path class="cls-7" d="M29.5,23.8h23.9l3.9,14.4v.6c1.6,4.7,6,8.1,11.2,8.1h38.9l6.2,23.1h-45.1c-.9,0-1.8,0-2.7-.1-13.9-1.1-25.4-10.3-29.9-22.9-.3-.8-.6-1.7-.8-2.5v-.5c-.1,0-5.5-20-5.5-20Z"/>
        <polygon class="cls-7" points="-.6 .7 47.2 .7 48.8 6.8 53.3 23.8 5.6 23.8 -.6 .7"/>
      </g>
      <g>
        <path class="cls-6" d="M12.4,46.1h24c4.5,12.6,16,21.9,29.9,22.9.9,0,1.8.1,2.7.1H18.5l-6.2-23.1Z"/>
        <polygon class="cls-5" points="71.6 0 95.5 0 101.6 23.1 102.2 25.2 102.4 26.1 107.8 46.1 83.9 46.1 80.1 31.8 79.9 31.2 77.8 23.1 71.6 .1 71.6 0"/>
        <polygon class="cls-4" points="90.1 69.2 114 69.2 117.1 80.7 123.2 103.7 99.4 103.7 93.2 80.7 90.1 69.2"/>
        <polygon class="cls-3" points="21.6 80.7 81.3 80.7 87.4 103.7 27.8 103.7 21.6 80.7"/>
        <path class="cls-1" d="M30,23.1h23.9l3.9,14.4v.6c1.6,4.7,6,8.1,11.2,8.1h38.9l6.2,23.1h-45.1c-.9,0-1.8,0-2.7-.1-13.9-1.1-25.4-10.3-29.9-22.9-.3-.8-.6-1.7-.8-2.5v-.5c-.1,0-5.5-20-5.5-20Z"/>
        <polygon class="cls-2" points="0 0 47.7 0 49.4 6.1 53.9 23.1 6.2 23.1 0 0"/>
      </g>
    </g>
  </g>
</svg>