<?xml version="1.0" encoding="UTF-8"?>
<svg xmlns="http://www.w3.org/2000/svg" version="1.1" viewBox="0 0 191 190">
  <defs>
    <style>
      .cls-1, .cls-2, .cls-3, .cls-4, .cls-5, .cls-6, .cls-7 {
        stroke: #2f3034;
      }

      .cls-1, .cls-2, .cls-4, .cls-5, .cls-6, .cls-7, .cls-8 {
        stroke-width: .4px;
      }

      .cls-1, .cls-2, .cls-5, .cls-7, .cls-8 {
        stroke-linecap: round;
        stroke-linejoin: round;
      }

      .cls-1, .cls-8 {
        fill: none;
      }

      .cls-2, .cls-9 {
        fill: #fff;
      }

      .cls-3 {
        stroke-width: .4px;
      }

      .cls-3, .cls-4, .cls-5, .cls-10 {
        fill: #2f3034;
      }

      .cls-3, .cls-4, .cls-6 {
        stroke-miterlimit: 10;
      }

      .cls-11, .cls-6, .cls-7 {
        fill: #9eff00;
      }

      .cls-8 {
        stroke: #9eff00;
      }
    </style>
  </defs>
  <!-- Generator: Adobe Illustrator 28.6.0, SVG Export Plug-In . SVG Version: 1.2.0 Build 709)  -->
  <g>
    <g id="Layer_1">
      <path class="cls-7" d="M1,60.7v69.3c0,5.1,4.8,8.7,9.7,7.3l105-30.4c4.1-1.2,7-4.9,7-9.2V26c0-4.7-4.5-8-9-6.7L9.4,49.5c-5,1.5-8.4,6-8.4,11.2h0Z"/>
      <path class="cls-2" d="M11.6,62.2v23.9c0,1.5,1.5,2.6,2.9,2.2l44.4-12.9c1.9-.6,3.3-2.3,3.3-4.4v-23.9c0-1.5-1.5-2.6-2.9-2.2l-44.4,12.9c-1.9.6-3.3,2.3-3.3,4.4Z"/>
      <path class="cls-2" d="M52.4,69.2c0,1.6.7,2.7,1.8,3,.4.1.8.1,1.2,0,1.7-.5,3-2.6,3-4.7s-.7-2.7-1.8-3c-.4-.1-.8-.1-1.2,0-1.7.5-3,2.6-3,4.7Z"/>
      <path class="cls-7" d="M21.9,78.8v-16.1c0-1.6-1.5-2.7-3-2.2l-.6.2c-2,.6-3.4,2.4-3.4,4.5v16.1c0,1.6,1.5,2.7,3,2.2l.6-.2c2-.6,3.4-2.4,3.4-4.5Z"/>
      <path class="cls-4" d="M21.1,78.6v-16.1c0-.9-.5-1.7-1.3-2.1-.3,0-.6,0-.9,0l-.6.2c-2,.6-3.4,2.4-3.4,4.5v16.1c0,.9.5,1.7,1.3,2.1.3,0,.6,0,.9,0l.6-.2c2-.6,3.4-2.4,3.4-4.5Z"/>
      <path class="cls-2" d="M14.9,65.2c0-2.1,1.4-3.9,3.4-4.5l.6-.2c1.5-.4,3,.7,3,2.2v4.1c0,2.1-1.4,3.9-3.4,4.5l-.6.2c-1.5.4-3-.7-3-2.2v-4.1Z"/>
      <path class="cls-7" d="M30.8,76.3v-16.1c0-1.6-1.5-2.7-3-2.2l-.6.2c-2,.6-3.4,2.4-3.4,4.5v16.1c0,1.6,1.5,2.7,3,2.2l.6-.2c2-.6,3.4-2.4,3.4-4.5h0Z"/>
      <path class="cls-4" d="M29.9,76v-16.1c0-.9-.5-1.7-1.3-2.1-.3,0-.6,0-.9,0l-.6.2c-2,.6-3.4,2.4-3.4,4.5v16.1c0,.9.5,1.7,1.3,2.1.3,0,.6,0,.9,0l.6-.2c2-.6,3.4-2.4,3.4-4.5Z"/>
      <path class="cls-2" d="M23.8,62.6c0-2.1,1.4-3.9,3.4-4.5l.6-.2c1.5-.4,3,.7,3,2.2v4.1c0,2.1-1.4,3.9-3.4,4.5l-.6.2c-1.5.4-3-.7-3-2.2v-4.1Z"/>
      <path class="cls-7" d="M39.7,73.7v-16.1c0-1.6-1.5-2.7-3-2.2l-.6.2c-2,.6-3.4,2.4-3.4,4.5v16.1c0,1.6,1.5,2.7,3,2.2l.6-.2c2-.6,3.4-2.4,3.4-4.5h0Z"/>
      <path class="cls-2" d="M38.8,73.5v-16.1c0-.9-.5-1.7-1.3-2.1-.3,0-.6,0-.9,0l-.6.2c-2,.6-3.4,2.4-3.4,4.5v16.1c0,.9.5,1.7,1.3,2.1.3,0,.6,0,.9,0l.6-.2c2-.6,3.4-2.4,3.4-4.5Z"/>
      <path class="cls-2" d="M32.6,72c0-2.1,1.4-3.9,3.4-4.5l.6-.2c1.5-.4,3,.7,3,2.2v4.1c0,2.1-1.4,3.9-3.4,4.5l-.6.2c-1.5.4-3-.7-3-2.2v-4.1Z"/>
      <path class="cls-7" d="M48.5,71.1v-16.1c0-1.6-1.5-2.7-3-2.2l-.6.2c-2,.6-3.4,2.4-3.4,4.5v16.1c0,1.6,1.5,2.7,3,2.2l.6-.2c2-.6,3.4-2.4,3.4-4.5Z"/>
      <path class="cls-4" d="M47.7,70.9v-16.1c0-.9-.5-1.7-1.3-2.1-.3,0-.6,0-.9,0l-.6.2c-2,.6-3.4,2.4-3.4,4.5v16.1c0,.9.5,1.7,1.3,2.1.3,0,.6,0,.9,0l.6-.2c2-.6,3.4-2.4,3.4-4.5Z"/>
      <path class="cls-2" d="M41.5,57.5c0-2.1,1.4-3.9,3.4-4.5l.6-.2c1.5-.4,3,.7,3,2.2v4.1c0,2.1-1.4,3.9-3.4,4.5l-.6.2c-1.5.4-3-.7-3-2.2v-4.1Z"/>
      <path class="cls-2" d="M59.3,80.9l-43.9,12.7h-.4c-2,.7-3.3,2.5-3.3,4.6v6.8c0,1.5,1.5,2.6,3,2.2l44.9-13c1.6-.5,2.7-2,2.7-3.6v-7.4c0-1.5-1.5-2.6-3-2.2Z"/>
      <path class="cls-2" d="M15.1,100.4c0,1.6.7,2.7,1.8,3,.4.1.8.1,1.2,0,1.7-.5,3-2.6,3-4.7s-.7-2.7-1.8-3c-.4-.1-.8-.1-1.2,0-1.7.5-3,2.6-3,4.7Z"/>
      <path class="cls-2" d="M41.8,97.4l-1.3-.4c-.6-.2-1-.7-1-1.3v-5.6c0-.6.4-1.1,1-1.3l5.1-1.5c.3,0,.5,0,.7,0l1.3.4-5.9,9.7h0Z"/>
      <path class="cls-7" d="M41.8,89.2c-.6.2-1,.7-1,1.3v5.6c0,.6.4,1.1,1,1.3.2,0,.5,0,.7,0l5.1-1.5c.6-.2,1-.7,1-1.3v-5.6c0-.6-.4-1.1-1-1.3-.2,0-.5,0-.7,0l-5.1,1.5Z"/>
      <path class="cls-10" d="M43.4,90.9c-.2,0-.4.2-.4.5v.6c0,.2,0,.3.2.4.1,0,.3.1.5,0l2.2-.6c.2,0,.4-.2.4-.5v-.6c0-.2,0-.3-.2-.4-.1,0-.3-.1-.5,0l-2.2.6Z"/>
      <path class="cls-4" d="M26.6,93.8v5.6c0,.6.4,1.1,1,1.3.2,0,.5,0,.7,0l5.1-1.5c.6-.2,1-.7,1-1.3v-5.6c0-.6-.4-1.1-1-1.3-.2,0-.5,0-.7,0l-5.1,1.5c-.6.2-1,.7-1,1.3Z"/>
      <path class="cls-7" d="M33.1,97.6v-5.6c0-.4-.2-.7-.4-.9l-5.1,1.5c-.6.2-1,.7-1,1.3v5.6c0,.4.2.7.4.9l5.1-1.5c.6-.2,1-.7,1-1.3Z"/>
      <path class="cls-9" d="M27.9,93.9c-.2,0-.4.2-.4.5v.6c0,.2,0,.3.2.4.1,0,.3.1.5,0l2.2-.6c.2,0,.4-.2.4-.5v-.6c0-.2,0-.3-.2-.4-.1,0-.3-.1-.5,0l-2.2.6Z"/>
      <path class="cls-4" d="M52.3,86.4v5.6c0,.6.4,1.1,1,1.3.2,0,.5,0,.7,0l5.1-1.5c.6-.2,1-.7,1-1.3v-5.6c0-.6-.4-1.1-1-1.3-.2,0-.5,0-.7,0l-5.1,1.5c-.6.2-1,.7-1,1.3Z"/>
      <path class="cls-7" d="M58.8,90.1v-5.6c0-.4-.2-.7-.4-.9l-5.1,1.5c-.6.2-1,.7-1,1.3v5.6c0,.4.2.7.4.9l5.1-1.5c.6-.2,1-.7,1-1.3Z"/>
      <path class="cls-9" d="M53.6,86.4c-.2,0-.4.2-.4.5v.6c0,.2,0,.3.2.4.1,0,.3.1.5,0l2.2-.6c.2,0,.4-.2.4-.5v-.6c0-.2,0-.3-.2-.4-.1,0-.3-.1-.5,0l-2.2.6Z"/>
      <path class="cls-3" d="M59.3,99.6l-43.9,12.7h-.4c-2,.7-3.3,2.5-3.3,4.6v6.8c0,1.5,1.5,2.6,3,2.2l43.9-12.7s-2.1.6-2.1.6l2.5-.7c2-.6,3.3-2.4,3.3-4.4v-6.8c0-1.5-1.5-2.6-3-2.2h0Z"/>
      <path class="cls-2" d="M15.5,119.2c0,1.6.7,2.7,1.8,3,.4.1.8.1,1.2,0,1.7-.5,3-2.6,3-4.7s-.7-2.7-1.8-3c-.4-.1-.8-.1-1.2,0-1.7.5-3,2.6-3,4.7Z"/>
      <path class="cls-9" d="M37.2,112.4v.7c0,.8.8,1.4,1.6,1.2l19.4-5.6c.8-.2,1.3-.9,1.3-1.7v-.7c0-.8-.8-1.4-1.6-1.2l-19.4,5.6c-.8.2-1.3.9-1.3,1.7Z"/>
      <path class="cls-11" d="M48.6,108.1l-.2-.2-9.9,2.9c-.8.2-1.3.9-1.3,1.7v.7c0,.8.8,1.4,1.6,1.2l9.8-2.8c.3-1.1.3-2.1,0-3.4Z"/>
      <path class="cls-11" d="M43,109.7c.3,1.3.2,2.1,0,3.6v-3.6Z"/>
      <path class="cls-1" d="M43,109.7c.3,1.3.2,2.1,0,3.6"/>
      <path class="cls-1" d="M48.6,108.1c.3,1.3.2,2.1,0,3.6"/>
      <path class="cls-1" d="M54.2,106.5c.3,1.3.2,2.1,0,3.6"/>
      <path class="cls-2" d="M26.2,115.8c0,1.6.7,2.7,1.8,3,.4.1.8.1,1.2,0,1.7-.5,3-2.6,3-4.7s-.7-2.7-1.8-3c-.4-.1-.8-.1-1.2,0-1.7.5-3,2.6-3,4.7Z"/>
      <path class="cls-2" d="M27.4,115.5c0,.9.4,1.6,1.1,1.8.2,0,.5,0,.7,0,1-.3,1.8-1.5,1.8-2.8s-.4-1.6-1.1-1.8c-.2,0-.5,0-.7,0-1,.3-1.8,1.5-1.8,2.8Z"/>
      <path class="cls-4" d="M28.8,115.1c0,.2.1.4.3.5,0,0,.1,0,.2,0,.3,0,.5-.4.5-.7s-.1-.4-.3-.5c0,0-.1,0-.2,0-.3,0-.5.4-.5.7Z"/>
      <path class="cls-4" d="M51.5,53.8v5.6c0,.6.4,1.1,1,1.3.2,0,.5,0,.7,0l5.1-1.5c.6-.2,1-.7,1-1.3v-5.6c0-.6-.4-1.1-1-1.3-.2,0-.5,0-.7,0l-5.1,1.5c-.6.2-1,.7-1,1.3Z"/>
      <path class="cls-7" d="M58,57.6v-5.6c0-.4-.2-.7-.4-.9l-5.1,1.5c-.6.2-1,.7-1,1.3v5.6c0,.4.2.7.4.9l5.1-1.5c.6-.2,1-.7,1-1.3Z"/>
      <path class="cls-9" d="M52.8,53.9c-.2,0-.4.2-.4.5v.6c0,.2,0,.3.2.4.1,0,.3.1.5,0l2.2-.6c.2,0,.4-.2.4-.5v-.6c0-.2,0-.3-.2-.4-.1,0-.3-.1-.5,0l-2.2.6Z"/>
      <path class="cls-3" d="M104.2,34.9c-.1,0-.2,0-.3,0-2.5-.6-5.1-.6-7.9.2-12.9,3.7-23.4,22.5-23.4,42s1,11.2,2.7,15.6c.6,1.4.3,3-.6,4.3-1.1,1.6-1.9,3.8-1.9,6.1s1.2,5.1,3,5.6c0,0,0,0,0,0,.5.1,1,.1,1.5,0,1.4-.4,2.7-1.7,3.5-3.5.6-1.2,2.1-1.7,3.2-1,1.1.7,2.4,1.3,3.7,1.6.1,0,.2,0,.3,0,2.5.6,5.1.6,7.9-.2,12.9-3.7,23.4-22.5,23.4-42s-6.3-26.2-15.2-28.7h0Z"/>
      <path class="cls-2" d="M74.4,103.3c0,1.6.7,2.7,1.8,3,.4.1.8.1,1.2,0,1.7-.5,3-2.6,3-4.7s-.7-2.7-1.8-3c-.4-.1-.8-.1-1.2,0-1.7.5-3,2.6-3,4.7Z"/>
      <path class="cls-9" d="M104.3,95.9l-11.9-3.4h.2c0,0-.1,0-.2,0-5.5-1.6-9.5-8.5-9.5-17.9s6.5-23.9,14.6-26.2c1.7-.5,3.4-.5,4.9-.1,0,0,.1,0,.2,0l11.9,3.4-10.3,44.2Z"/>
      <g>
        <path class="cls-1" d="M92.4,92.5l11.9,3.4,10.3-44.2-11.9-3.4c0,0-.1,0-.2,0-1.5-.4-3.2-.4-4.9.1-8.1,2.3-14.6,14-14.6,26.2s3.9,16.4,9.5,17.9ZM92.4,92.5h.2c0,0-.1,0-.2,0Z"/>
        <path class="cls-4" d="M106.4,86.8l-22.9-6.5c1.2,6.4,4.6,11,8.9,12.2l11.9,3.4,2.1-9.1h0Z"/>
        <path class="cls-8" d="M83.8,81.5c1.4,5.8,4.6,9.8,8.6,11l8.6,2.4"/>
        <path class="cls-2" d="M114.4,51.6c-1.5-.4-3.2-.4-4.9.1-8.1,2.3-14.6,14-14.6,26.2s3.9,16.4,9.5,17.9c0,0,.1,0,.2,0,1.5.4,3.2.4,4.9-.1,8.1-2.3,14.6-14,14.6-26.2s-3.9-16.4-9.5-17.9c0,0-.1,0-.2,0Z"/>
        <path class="cls-2" d="M115.2,54.2c-1.4-.4-2.9-.3-4.4.1-7.2,2.1-13.1,12.6-13.1,23.5s3.5,14.7,8.5,16.1c0,0,.1,0,.2,0,1.4.4,2.9.3,4.4-.1,7.2-2.1,13.1-12.6,13.1-23.5s-3.5-14.7-8.5-16.1c0,0-.1,0-.2,0Z"/>
        <path class="cls-7" d="M116.9,57.1c-.2,0-.4,0-.6,0-.9.3-1.7,1.6-1.7,3s.5,1.9,1.1,2.1h0c.2,0,.4,0,.6,0,.9-.3,1.7-1.6,1.7-3s-.5-1.9-1.1-2.1h0Z"/>
        <path class="cls-4" d="M116.6,58.2c0,0-.2,0-.3,0-.5.2-.9.9-.9,1.7s.3,1.1.6,1.2h0c0,0,.2,0,.3,0,.5-.2.9-.9.9-1.7s-.3-1.1-.6-1.2h0Z"/>
        <path class="cls-6" d="M97.2,98.6c0,0-.2,0-.3,0-.4.1-.8.7-.8,1.3s.2.8.5.9h0c0,0,.2,0,.3,0,.4-.1.8-.7.8-1.3s-.2-.8-.5-.9h0Z"/>
        <path class="cls-6" d="M91.5,98.9c0,0-.2,0-.3,0-.4.1-.8.7-.8,1.3s.2.8.5.9h0c0,0,.2,0,.3,0,.4-.1.8-.7.8-1.3s-.2-.8-.5-.9h0Z"/>
        <path class="cls-6" d="M87.1,97.2c0,0-.2,0-.3,0-.4.1-.8.7-.8,1.3s.2.8.5.9h0c0,0,.2,0,.3,0,.4-.1.8-.7.8-1.3s-.2-.8-.5-.9h0Z"/>
        <path class="cls-6" d="M83.5,93.9c0,0-.2,0-.3,0-.4.1-.8.7-.8,1.3s.2.8.5.9h0c0,0,.2,0,.3,0,.4-.1.8-.7.8-1.3s-.2-.8-.5-.9h0Z"/>
        <path class="cls-6" d="M80.6,89.4c0,0-.2,0-.3,0-.4.1-.8.7-.8,1.3s.2.8.5.9h0c0,0,.2,0,.3,0,.4-.1.8-.7.8-1.3s-.2-.8-.5-.9h0Z"/>
        <path class="cls-6" d="M78.6,83.6c0,0-.2,0-.3,0-.4.1-.8.7-.8,1.3s.2.8.5.9h0c0,0,.2,0,.3,0,.4-.1.8-.7.8-1.3s-.2-.8-.5-.9h0Z"/>
        <path class="cls-6" d="M77.7,76.8c0,0-.2,0-.3,0-.4.1-.8.7-.8,1.3s.2.8.5.9h0c0,0,.2,0,.3,0,.4-.1.8-.7.8-1.3s-.2-.8-.5-.9h0Z"/>
        <path class="cls-6" d="M77.9,70c0,0-.2,0-.3,0-.4.1-.8.7-.8,1.3s.2.8.5.9h0c0,0,.2,0,.3,0,.4-.1.8-.7.8-1.3s-.2-.8-.5-.9h0Z"/>
        <path class="cls-6" d="M79,63.7c0,0-.2,0-.3,0-.4.1-.8.7-.8,1.3s.2.8.5.9h0c0,0,.2,0,.3,0,.4-.1.8-.7.8-1.3s-.2-.8-.5-.9h0Z"/>
        <path class="cls-6" d="M80.8,57.7c0,0-.2,0-.3,0-.4.1-.8.7-.8,1.3s.2.8.5.9h0c0,0,.2,0,.3,0,.4-.1.8-.7.8-1.3s-.2-.8-.5-.9h0Z"/>
        <path class="cls-6" d="M83.4,52.3c0,0-.2,0-.3,0-.4.1-.8.7-.8,1.3s.2.8.5.9h0c0,0,.2,0,.3,0,.4-.1.8-.7.8-1.3s-.2-.8-.5-.9h0Z"/>
        <path class="cls-6" d="M86.5,47.6c0,0-.2,0-.3,0-.4.1-.8.7-.8,1.3s.2.8.5.9h0c0,0,.2,0,.3,0,.4-.1.8-.7.8-1.3s-.2-.8-.5-.9h0Z"/>
        <path class="cls-6" d="M90.1,43.7c0,0-.2,0-.3,0-.4.1-.8.7-.8,1.3s.2.8.5.9h0c0,0,.2,0,.3,0,.4-.1.8-.7.8-1.3s-.2-.8-.5-.9h0Z"/>
        <path class="cls-6" d="M94.1,41c0,0-.2,0-.3,0-.4.1-.8.7-.8,1.3s.2.8.5.9h0c0,0,.2,0,.3,0,.4-.1.8-.7.8-1.3s-.2-.8-.5-.9h0Z"/>
        <path class="cls-6" d="M98.8,39.4c0,0-.2,0-.3,0-.4.1-.8.7-.8,1.3s.2.8.5.9h0c0,0,.2,0,.3,0,.4-.1.8-.7.8-1.3s-.2-.8-.5-.9h0Z"/>
        <path class="cls-6" d="M104.3,39.7c0,0-.2,0-.3,0-.4.1-.8.7-.8,1.3s.2.8.5.9h0c0,0,.2,0,.3,0,.4-.1.8-.7.8-1.3s-.2-.8-.5-.9h0Z"/>
        <path class="cls-6" d="M109,42.4c0,0-.2,0-.3,0-.4.1-.8.7-.8,1.3s.2.8.5.9h0c0,0,.2,0,.3,0,.4-.1.8-.7.8-1.3s-.2-.8-.5-.9h0Z"/>
        <path class="cls-6" d="M112.8,47c0,0-.2,0-.3,0-.4.1-.8.7-.8,1.3s.2.8.5.9h0c0,0,.2,0,.3,0,.4-.1.8-.7.8-1.3s-.2-.8-.5-.9h0Z"/>
        <path class="cls-2" d="M15.5,119.2c0,1.6.7,2.7,1.8,3,.4.1.8.1,1.2,0,1.7-.5,3-2.6,3-4.7s-.7-2.7-1.8-3c-.4-.1-.8-.1-1.2,0-1.7.5-3,2.6-3,4.7Z"/>
        <path class="cls-7" d="M21.2,121.6l-3.4-1c-.6-.2-1.1-.8-1.1-1.8s.8-2.5,1.8-2.8c.3,0,1.1,0,1.3.1l2.9.8-1.5,4.6Z"/>
        <path class="cls-5" d="M16.8,119.1l3.8,1.1.8.9-.2.5-3.4-1c-.6-.2-1-.7-1-1.5Z"/>
        <path class="cls-2" d="M20.2,119.8c0,.9.4,1.6,1.1,1.8.2,0,.5,0,.7,0,1-.3,1.8-1.5,1.8-2.8s-.4-1.6-1.1-1.8c-.2,0-.5,0-.7,0-1,.3-1.8,1.5-1.8,2.8Z"/>
        <path class="cls-7" d="M24.8,121.6l-2.6-.7c-.4-.1-.6-.5-.6-1.1s.5-1.5,1.1-1.7c.2,0,.3,0,.5,0l2.6.7-.9,2.8h0Z"/>
        <path class="cls-5" d="M21.5,119.8h0s3.5.9,3.5.9l-.3.9-2.6-.7c-.4-.1-.6-.5-.6-1.1h0Z"/>
        <path class="cls-2" d="M24.1,120.5c0,.6.3,1,.6,1.1.1,0,.3,0,.5,0,.6-.2,1.1-.9,1.1-1.7s-.3-1-.6-1.1c-.1,0-.3,0-.5,0-.6.2-1.1.9-1.1,1.7Z"/>
        <path class="cls-2" d="M15.1,100.4c0,1.6.7,2.7,1.8,3,.4.1.8.1,1.2,0,1.7-.5,3-2.6,3-4.7s-.7-2.7-1.8-3c-.4-.1-.8-.1-1.2,0-1.7.5-3,2.6-3,4.7Z"/>
        <path class="cls-7" d="M20.9,102.8l-3.4-1c-.6-.2-1.1-.8-1.1-1.8s.8-2.5,1.8-2.8c.3,0,1.1,0,1.3.1l2.9.8-1.5,4.6Z"/>
        <path class="cls-5" d="M16.4,100.3l3.8,1.1.8.9-.2.5-3.4-1c-.6-.2-1-.7-1-1.5Z"/>
        <path class="cls-2" d="M19.8,101c0,.9.4,1.6,1.1,1.8.2,0,.5,0,.7,0,1-.3,1.8-1.5,1.8-2.8s-.4-1.6-1.1-1.8c-.2,0-.5,0-.7,0-1,.3-1.8,1.5-1.8,2.8Z"/>
        <path class="cls-7" d="M24.4,102.8l-2.6-.7c-.4-.1-.6-.5-.6-1.1s.5-1.5,1.1-1.7c.2,0,.3,0,.5,0l2.6.7-.9,2.8h0Z"/>
        <path class="cls-5" d="M21.2,101h0s3.5.9,3.5.9l-.3.9-2.6-.7c-.4-.1-.6-.5-.6-1.1h0Z"/>
        <path class="cls-2" d="M23.8,101.7c0,.6.3,1,.6,1.1.1,0,.3,0,.5,0,.6-.2,1.1-.9,1.1-1.7s-.3-1-.6-1.1c-.1,0-.3,0-.5,0-.6.2-1.1.9-1.1,1.7Z"/>
        <path class="cls-2" d="M74.4,103.3c0,1.6.7,2.7,1.8,3,.4.1.8.1,1.2,0,1.7-.5,3-2.6,3-4.7s-.7-2.7-1.8-3c-.4-.1-.8-.1-1.2,0-1.7.5-3,2.6-3,4.7Z"/>
        <path class="cls-7" d="M80.1,105.7l-3.4-1c-.6-.2-1.1-.8-1.1-1.8s.8-2.5,1.8-2.8c.3,0,1.1,0,1.3.1l2.9.8-1.5,4.6Z"/>
        <path class="cls-5" d="M75.6,103.2l3.8,1.1.8.9-.2.5-3.4-1c-.6-.2-1-.7-1-1.5Z"/>
        <path class="cls-2" d="M79,103.9c0,.9.4,1.6,1.1,1.8.2,0,.5,0,.7,0,1-.3,1.8-1.5,1.8-2.8s-.4-1.6-1.1-1.8c-.2,0-.5,0-.7,0-1,.3-1.8,1.5-1.8,2.8Z"/>
        <path class="cls-7" d="M83.7,105.7l-2.6-.7c-.4-.1-.6-.5-.6-1.1s.5-1.5,1.1-1.7c.2,0,.3,0,.5,0l2.6.7-.9,2.8h0Z"/>
        <path class="cls-5" d="M80.4,103.9h0s3.5.9,3.5.9l-.3.9-2.6-.7c-.4-.1-.6-.5-.6-1.1h0Z"/>
        <path class="cls-2" d="M83,104.6c0,.6.3,1,.6,1.1.1,0,.3,0,.5,0,.6-.2,1.1-.9,1.1-1.7s-.3-1-.6-1.1c-.1,0-.3,0-.5,0-.6.2-1.1.9-1.1,1.7Z"/>
        <path class="cls-2" d="M52.4,69.2c0,1.6.7,2.7,1.8,3,.4.1.8.1,1.2,0,1.7-.5,3-2.6,3-4.7s-.7-2.7-1.8-3c-.4-.1-.8-.1-1.2,0-1.7.5-3,2.6-3,4.7Z"/>
        <path class="cls-7" d="M58.2,71.6l-3.4-1c-.6-.2-1.1-.8-1.1-1.8s.8-2.5,1.8-2.8c.3,0,1.1,0,1.3.1l2.9.8-1.5,4.6Z"/>
        <path class="cls-5" d="M53.7,69.1l3.8,1.1.8.9-.2.5-3.4-1c-.6-.2-1-.7-1-1.5Z"/>
        <path class="cls-2" d="M57.1,69.8c0,.9.4,1.6,1.1,1.8.2,0,.5,0,.7,0,1-.3,1.8-1.5,1.8-2.8s-.4-1.6-1.1-1.8c-.2,0-.5,0-.7,0-1,.3-1.8,1.5-1.8,2.8Z"/>
        <path class="cls-7" d="M61.7,71.6l-2.6-.7c-.4-.1-.6-.5-.6-1.1s.5-1.5,1.1-1.7c.2,0,.3,0,.5,0l2.6.7-.9,2.8h0Z"/>
        <path class="cls-5" d="M58.5,69.8h0s3.5.9,3.5.9l-.3.9-2.6-.7c-.4-.1-.6-.5-.6-1.1h0Z"/>
        <path class="cls-2" d="M61.1,70.6c0,.6.3,1,.6,1.1.1,0,.3,0,.5,0,.6-.2,1.1-.9,1.1-1.7s-.3-1-.6-1.1c-.1,0-.3,0-.5,0-.6.2-1.1.9-1.1,1.7Z"/>
        <path class="cls-2" d="M72.8,145.7c0,0-.1,0-.2,0l-16.1-4.6c-4-1.1-5.9-1.8-9.9-.6l-3.4,1c-1.8.5-3.8.2-5.3-1-1.5-1.2-2.4-2.9-2.4-4.8v-19.5c0-6.4-4.3-12.1-10.4-13.8-.4-.1-.6-.5-.5-.9.1-.4.5-.6.9-.5,6.8,1.9,11.5,8.2,11.5,15.3v19.5c0,1.4.7,2.8,1.8,3.6,1.2.9,2.6,1.1,4,.7l3.4-1c4.2-1.2,6.5-.6,10.7.6l16.1,4.6c.4.1.6.5.5.9,0,.3-.4.5-.7.5h0Z"/>
        <path class="cls-2" d="M39.5,146.8c-1.3,0-2.6-.2-3.9-.5-2.9-.8-5-3.5-5-6.6v-11.6c0-3.2-2.2-6.1-5.3-7-.4-.1-.6-.5-.5-.9.1-.4.5-.6.9-.5,3.8,1.1,6.4,4.6,6.4,8.5v11.6c0,2.4,1.6,4.5,3.9,5.1,2.3.7,4.7.6,7,0l5.3-1.5c4.2-1.2,6.5-.6,10.7.6l7.4,2.1c.4.1.6.5.5.9-.1.4-.5.6-.9.5l-7.4-2.1c-4-1.1-5.9-1.8-9.9-.6l-5.3,1.5c-1.3.4-2.6.6-3.9.6h0Z"/>
        <path class="cls-2" d="M73.9,132.5c-3.3.9-3.3,3.2,0,4.2l12.9,3.7c.4.1.6.5.5.9,0,.3-.4.5-.7.5s-.1,0-.2,0l-12.9-3.7c-4.8-1.4-4.7-5.7,0-7.1l11.7-3.4c3.2-.9,4.4-2.4,4.4-5.8v-9.6c0-3.2-2.2-6.1-5.3-7-.4-.1-.6-.5-.5-.9.1-.4.5-.6.9-.5,3.8,1.1,6.4,4.6,6.4,8.5v9.6c0,4.1-1.6,6.2-5.5,7.3l-11.7,3.4h0Z"/>
        <path class="cls-2" d="M63,130.8c-3.4,1.1-4.6,1.2-4.6,3.3s1.3,2.7,4,3.5l17,4.8c.4.1.6.5.5.9,0,.3-.4.5-.7.5s-.1,0-.2,0l-17-4.8c-3.6-1-5.1-3-5.1-5s1.6-3.2,5.7-4.6c4.1-1.3,5-2.5,5-5.6v-45.8c0-3.2-2.2-6.1-5.3-7-.4-.1-.6-.5-.5-.9.1-.4.5-.6.9-.5,3.8,1.1,6.4,4.6,6.4,8.5v45.8c0,3.9-1.7,5.5-6.2,6.9h0Z"/>
        <path class="cls-7" d="M85,147.2l-28.1,2.7v10.4c0,.9,1.2,1.8,3.7,2.5l26.1,7.3c2.3.6,4.6.9,6.9.9s4.7-.3,6.9-.9l24.4-6.8c2.5-.7,3.7-1.6,3.7-2.5v-10.4l-29.8-3.2c-4.5-1.3-9.3-1.3-13.9,0h0Z"/>
        <path class="cls-5" d="M85,140.6l-24.4,6.8c-2.5.7-3.7,1.6-3.7,2.5s1.2,1.8,3.7,2.5l26.1,7.3c4.5,1.3,9.3,1.3,13.9,0l24.4-6.8c2.5-.7,3.7-1.6,3.7-2.5s-1.2-1.8-3.7-2.5l-26.1-7.3c-4.5-1.3-9.3-1.3-13.9,0h0Z"/>
        <path class="cls-5" d="M87,167c0,.3.2.7.4.8,0,0,0,0,.1,0,.2,0,.3-.2.3-.5v-4.3c0-.3-.2-.7-.4-.8,0,0,0,0-.1,0-.2,0-.3.2-.3.5v4.3Z"/>
        <path class="cls-5" d="M84.1,166.2c0,.3.2.7.4.8,0,0,0,0,.1,0,.2,0,.3-.2.3-.5v-4.3c0-.3-.2-.7-.4-.8,0,0,0,0-.1,0-.2,0-.3.2-.3.5v4.3Z"/>
        <path class="cls-5" d="M81.2,165.4c0,.3.2.7.4.8,0,0,0,0,.1,0,.2,0,.3-.2.3-.5v-4.3c0-.3-.2-.7-.4-.8,0,0,0,0-.1,0-.2,0-.3.2-.3.5v4.3Z"/>
        <path class="cls-5" d="M78.3,164.6c0,.3.2.7.4.8,0,0,0,0,.1,0,.2,0,.3-.2.3-.5v-4.3c0-.3-.2-.7-.4-.8,0,0,0,0-.1,0-.2,0-.3.2-.3.5v4.3Z"/>
        <path class="cls-5" d="M75.4,163.8c0,.3.2.7.4.8,0,0,0,0,.1,0,.2,0,.3-.2.3-.5v-4.3c0-.3-.2-.7-.4-.8,0,0,0,0-.1,0-.2,0-.3.2-.3.5v4.3Z"/>
        <path class="cls-5" d="M72.5,163c0,.3.2.7.4.8,0,0,0,0,.1,0,.2,0,.3-.2.3-.5v-4.3c0-.3-.2-.7-.4-.8,0,0,0,0-.1,0-.2,0-.3.2-.3.5v4.3Z"/>
        <path class="cls-5" d="M69.6,162.2c0,.3.2.7.4.8,0,0,0,0,.1,0,.2,0,.3-.2.3-.5v-4.3c0-.3-.2-.7-.4-.8,0,0,0,0-.1,0-.2,0-.3.2-.3.5v4.3Z"/>
        <path class="cls-5" d="M66.6,161.4c0,.3.2.7.4.8,0,0,0,0,.1,0,.2,0,.3-.2.3-.5v-4.3c0-.3-.2-.7-.4-.8,0,0,0,0-.1,0-.2,0-.3.2-.3.5v4.3Z"/>
        <path class="cls-5" d="M63.7,160.6c0,.3.2.7.4.8,0,0,0,0,.1,0,.2,0,.3-.2.3-.5v-4.3c0-.3-.2-.7-.4-.8,0,0,0,0-.1,0-.2,0-.3.2-.3.5v4.3Z"/>
        <path class="cls-5" d="M60.8,159.8c0,.3.2.7.4.8,0,0,0,0,.1,0,.2,0,.3-.2.3-.5v-4.3c0-.3-.2-.7-.4-.8,0,0,0,0-.1,0-.2,0-.3.2-.3.5v4.3Z"/>
        <path class="cls-7" d="M88.1,141.6l-23,6.4c-1.8.5-1.8,1.3,0,1.8l4.5,1.3c1.1.3,2.2.3,3.3,0l23-6.4c1.8-.5,1.8-1.3,0-1.8l-4.5-1.3c-1.1-.3-2.2-.3-3.3,0Z"/>
        <path class="cls-2" d="M88.7,143.9c1.3.3,3.3.3,4.5,0,1.3-.3,1.3-.9,0-1.3-1.3-.3-3.3-.3-4.5,0-1.3.3-1.3.9,0,1.3Z"/>
        <path class="cls-7" d="M89,143c0,.1.2.3.6.4.8.2,2,.2,2.7,0,.4-.1.6-.2.6-.4v-5.1h-3.8v5.1Z"/>
        <path class="cls-5" d="M89,143c0,.1.2.3.6.4.2,0,.5,0,.7.1v-5.3l-.8-.3h-.5v5.1Z"/>
        <path class="cls-2" d="M89.6,138.3c.8.2,2,.2,2.7,0,.4-.1.6-.2.6-.4s-.2-.3-.6-.4c-.8-.2-2-.2-2.7,0-.4.1-.6.2-.6.4s.2.3.6.4Z"/>
        <path class="cls-2" d="M84.7,136.1v4.6l1.5-.4v-4.1c0-3.1,4-3.9,4,.4v1c0,.4.3.4.8.4s.8,0,.8-.4v-1c0-6.4-7-5.7-7-.4Z"/>
        <path class="cls-2" d="M82.1,145.7c1.3.3,3.3.3,4.5,0,1.3-.3,1.3-.9,0-1.3-1.3-.3-3.3-.3-4.5,0-1.3.3-1.3.9,0,1.3Z"/>
        <path class="cls-7" d="M82.5,144.8c0,.1.2.3.6.4.8.2,2,.2,2.7,0,.4-.1.6-.2.6-.4v-5.1h-3.8v5.1Z"/>
        <path class="cls-5" d="M82.5,144.8c0,.1.2.3.6.4.2,0,.5,0,.7.1v-5.3l-.8-.3h-.5v5.1Z"/>
        <path class="cls-2" d="M83,140.1c.8.2,2,.2,2.7,0,.4-.1.6-.2.6-.4s-.2-.3-.6-.4c-.8-.2-2-.2-2.7,0-.4.1-.6.2-.6.4s.2.3.6.4Z"/>
        <path class="cls-2" d="M78.2,137.9v4.6l1.5-.4v-4.1c0-3.1,4-3.9,4,.4v1c0,.4.3.4.8.4s.8,0,.8-.4v-1c0-6.4-7-5.7-7-.4Z"/>
        <path class="cls-2" d="M75.6,147.6c1.3.3,3.3.3,4.5,0,1.3-.3,1.3-.9,0-1.3-1.3-.3-3.3-.3-4.5,0-1.3.3-1.3.9,0,1.3Z"/>
        <path class="cls-7" d="M75.9,146.7c0,.1.2.3.6.4.8.2,2,.2,2.7,0,.4-.1.6-.2.6-.4v-5.1h-3.8v5.1Z"/>
        <path class="cls-5" d="M75.9,146.7c0,.1.2.3.6.4.2,0,.5,0,.7.1v-5.3l-.8-.3h-.5v5.1Z"/>
        <path class="cls-2" d="M76.5,142c.8.2,2,.2,2.7,0,.4-.1.6-.2.6-.4s-.2-.3-.6-.4c-.8-.2-2-.2-2.7,0-.4.1-.6.2-.6.4s.2.3.6.4Z"/>
        <path class="cls-2" d="M71.6,139.7v4.6l1.5-.4v-4.1c0-3.1,4-3.9,4,.4v1c0,.4.3.4.8.4s.8,0,.8-.4v-1c0-6.4-7-5.7-7-.4Z"/>
        <path class="cls-2" d="M69.1,149.4c1.3.3,3.3.3,4.5,0,1.3-.3,1.3-.9,0-1.3-1.3-.3-3.3-.3-4.5,0-1.3.3-1.3.9,0,1.3Z"/>
        <path class="cls-7" d="M69.4,148.5c0,.1.2.3.6.4.8.2,2,.2,2.7,0,.4-.1.6-.2.6-.4v-5.1h-3.8v5.1Z"/>
        <path class="cls-5" d="M69.4,148.5c0,.1.2.3.6.4.2,0,.5,0,.7.1v-5.3l-.8-.3h-.5v5.1Z"/>
        <path class="cls-2" d="M69.9,143.8c.8.2,2,.2,2.7,0,.4-.1.6-.2.6-.4s-.2-.3-.6-.4c-.8-.2-2-.2-2.7,0-.4.1-.6.2-.6.4s.2.3.6.4Z"/>
        <path class="cls-2" d="M65.1,141.5v4.6l1.5-.4v-4.1c0-3.1,4-3.9,4,.4v1c0,.4.3.4.8.4s.8,0,.8-.4v-1c0-6.4-7-5.7-7-.4Z"/>
        <path class="cls-2" d="M85.3,150.8c0,.9,1.2,1.8,3.7,2.5,4.9,1.4,12.9,1.4,17.9,0,2.5-.7,3.7-1.6,3.7-2.5v-2.8h-25.3v2.8Z"/>
        <path class="cls-2" d="M89,150.5c4.9,1.4,12.9,1.4,17.9,0,2.5-.7,3.7-1.6,3.7-2.5s-1.2-1.8-3.7-2.5c-4.9-1.4-12.9-1.4-17.9,0-2.5.7-3.7,1.6-3.7,2.5s1.2,1.8,3.7,2.5Z"/>
        <path class="cls-2" d="M90.1,149.6c4.3,1.2,11.2,1.2,15.5,0,2.1-.6,3.2-1.4,3.2-2.2s-1.1-1.6-3.2-2.2c-4.3-1.2-11.2-1.2-15.5,0-2.1.6-3.2,1.4-3.2,2.2s1.1,1.6,3.2,2.2Z"/>
      </g>
    </g>
  </g>
</svg>