<?xml version="1.0" encoding="UTF-8"?>
<svg width="200" height="30" xmlns="http://www.w3.org/2000/svg" version="1.1" viewBox="0 0 200 30">
  <defs>
    <style>
      .cls-1 {
        fill: #fff;
      }
    </style>
  </defs>
  <!-- Generator: Adobe Illustrator 28.6.0, SVG Export Plug-In . SVG Version: 1.2.0 Build 709)  -->
  <g>
    <g id="Layer_1">
      <g>
        <g>
          <path class="cls-1" d="M3.5,13.5h6.9c1.3,3.6,4.6,6.3,8.6,6.6.3,0,.5,0,.8,0H5.3l-1.8-6.6Z"/>
          <polygon class="cls-1" points="20.6 .2 27.4 .2 29.2 6.8 29.3 7.4 29.4 7.7 31 13.5 24.1 13.5 23 9.3 23 9.2 22.3 6.8 20.6 .2 20.6 .2"/>
          <polygon class="cls-1" points="25.9 20.1 32.7 20.1 33.6 23.4 35.4 30 28.5 30 26.8 23.4 25.9 20.1"/>
          <polygon class="cls-1" points="6.2 23.4 23.3 23.4 25.1 30 8 30 6.2 23.4"/>
          <path class="cls-1" d="M8.6,6.8h6.9l1.1,4.1v.2c.5,1.3,1.7,2.3,3.2,2.3h11.2l1.8,6.6h-12.9c-.3,0-.5,0-.8,0-4-.3-7.3-3-8.6-6.6,0-.2-.2-.5-.2-.7h0c0-.1-1.5-5.9-1.5-5.9Z"/>
          <polygon class="cls-1" points="0 .2 13.7 .2 14.2 2 15.5 6.8 1.8 6.8 0 .2"/>
        </g>
        <g>
          <path class="cls-1" d="M3.7,13.2h6.9c1.3,3.6,4.6,6.3,8.6,6.6.3,0,.5,0,.8,0H5.5l-1.8-6.6Z"/>
          <polygon class="cls-1" points="20.7 0 27.6 0 29.3 6.6 29.5 7.2 29.6 7.5 31.1 13.2 24.3 13.2 23.2 9.1 23.1 8.9 22.5 6.6 20.7 0 20.7 0"/>
          <polygon class="cls-1" points="26 19.9 32.9 19.9 33.8 23.2 35.5 29.8 28.7 29.8 26.9 23.2 26 19.9"/>
          <polygon class="cls-1" points="6.4 23.2 23.5 23.2 25.3 29.8 8.1 29.8 6.4 23.2"/>
          <path class="cls-1" d="M8.8,6.6h6.9l1.1,4.1v.2c.5,1.3,1.7,2.3,3.2,2.3h11.2l1.8,6.6h-12.9c-.3,0-.5,0-.8,0-4-.3-7.3-3-8.6-6.6,0-.2-.2-.5-.2-.7h0c0-.1-1.5-5.9-1.5-5.9Z"/>
          <polygon class="cls-1" points=".2 0 13.9 0 14.3 1.7 15.6 6.6 1.9 6.6 .2 0"/>
        </g>
        <g>
          <path class="cls-1" d="M41.8,28.3V2.3h5.6v26h-5.6ZM46.7,17.3v-4.5h12.3v4.5h-12.3ZM58.1,28.3V2.3h5.6v26h-5.6Z"/>
          <path class="cls-1" d="M75.5,28.3v-8.9l-8.9-17.1h6.3l5.9,12.5h-1l5.9-12.5h6.2l-8.8,17.1v8.9h-5.6Z"/>
          <path class="cls-1" d="M100.2,28.3l-9.4-26h5.9l6.9,20.3,6.9-20.3h5.9l-9.4,26h-6.9Z"/>
          <path class="cls-1" d="M119.5,28.3V2.3h17.4v4.5h-11.8v6.1h10.7v4.3h-10.7v6.6h11.8v4.5h-17.4Z"/>
        </g>
      </g>
    </g>
  </g>
</svg>