<?xml version="1.0" encoding="UTF-8"?>
<svg xmlns="http://www.w3.org/2000/svg" xmlns:xlink="http://www.w3.org/1999/xlink" version="1.1" viewBox="0 0 190 190">
  <defs>
    <style>
      .cls-1, .cls-2, .cls-3 {
        fill: none;
      }

      .cls-2, .cls-4, .cls-5, .cls-6 {
        stroke: #2f3034;
      }

      .cls-2, .cls-4, .cls-5, .cls-6, .cls-3 {
        stroke-linecap: round;
        stroke-linejoin: round;
        stroke-width: .4px;
      }

      .cls-4, .cls-7 {
        fill: #fff;
      }

      .cls-5 {
        fill: #2f3034;
      }

      .cls-8, .cls-6 {
        fill: #9eff00;
      }

      .cls-3 {
        stroke: #9eff00;
      }

      .cls-9 {
        clip-path: url(#clippath);
      }
    </style>
    <clipPath id="clippath">
      <rect class="cls-1" x="31.6" y="39.2" width="52.1" height="46.7"/>
    </clipPath>
  </defs>
  <!-- Generator: Adobe Illustrator 28.6.0, SVG Export Plug-In . SVG Version: 1.2.0 Build 709)  -->
  <g>
    <g id="Layer_1">
      <g>
        <path class="cls-4" d="M55,150l-1.3-1.6h0v2.7l1.4,1.6v-2.7Z"/>
        <path class="cls-4" d="M64,155.2l3.5,1.3h0v4.4l-3.5-1.3v-4.4h0Z"/>
        <path class="cls-4" d="M64.9,157.7c0,.6.3,1.2.8,1.4.5.2.9-.1,1-.7,0-.6-.3-1.2-.8-1.4-.5-.2-.9.1-1,.7Z"/>
        <path class="cls-6" d="M59,158.8h-1c-.3,0-.5-.2-.5-.5s.2-.5.5-.5c2.5,0,5.1,0,7.5-.3.3,0,.4.2.5.5,0,.3,0,.5-.4.5-2.1.2-4.3.3-6.6.3h0Z"/>
        <path class="cls-2" d="M57.3,124.9c16.8,0,30.4,3.2,30.4,7s-13.6,7-30.4,7-30.4-3.2-30.4-7,6.4-5,16-6.2c4.3-.5,9.2-.8,14.5-.8ZM79.6,131.8c0-2.8-11.4-4.5-22.4-4.5s-22.4,1.7-22.4,4.5,11.4,4.5,22.4,4.5,22.4-1.7,22.4-4.5Z"/>
        <path class="cls-5" d="M57.2,136.3c-11,0-22.4-1.7-22.4-4.5s11.4-4.5,22.4-4.5,22.4,1.7,22.4,4.5-11.4,4.5-22.4,4.5Z"/>
        <path class="cls-3" d="M78.5,133.1c-2.7-1.8-11.2-3.1-21.3-3.1s-18.6,1.3-21.3,3.1"/>
        <path class="cls-3" d="M68.9,135c-3.4-.4-7.4-.6-11.7-.6s-8.3.2-11.7.6"/>
        <path class="cls-3" d="M57.2,136.2v-8.7"/>
        <path class="cls-3" d="M65,135.9v-8.1"/>
        <path class="cls-3" d="M71.3,135.2v-6.7"/>
        <path class="cls-3" d="M76.1,134.1v-4.6"/>
        <path class="cls-3" d="M49.4,127.8v8.1"/>
        <path class="cls-3" d="M43,128.5v6.7"/>
        <path class="cls-3" d="M38.3,129.5v4.6"/>
        <path class="cls-6" d="M16,117.8c0,5.3,18.5,9.5,41.2,9.5s41.2-4.3,41.2-9.5v-9.7c0,5.3-18.5,9.5-41.2,9.5s-41.2-4.3-41.2-9.5v9.7Z"/>
        <path class="cls-5" d="M57.2,98.6c22.8,0,41.2,4.3,41.2,9.5s-18.5,9.5-41.2,9.5-41.2-4.3-41.2-9.5,18.5-9.5,41.2-9.5ZM57.2,99.8c-24.8,0-40,4.8-40,8.3s2.1,2.7,5.8,4c1.7.6,3.4,1.1,4.5,1.3,5.5,1.3,15,3,29.7,3s26.6-1.6,34.2-4.3c3.7-1.3,5.8-2.8,5.8-4s-4-3.8-10.3-5.4c-5.4-1.3-15-3-29.7-3Z"/>
        <path class="cls-4" d="M97.2,108.1c0-1.7-4-3.8-10.3-5.4-5.4-1.3-15-3-29.7-3-24.8,0-40,4.8-40,8.3s2.1,2.7,5.8,4c.2,0,.4.1.5.2,7.5-2.4,19.7-4,33.6-4s26.2,1.6,33.6,4c.2,0,.4-.1.6-.2,3.7-1.3,5.8-2.8,5.8-4h0Z"/>
        <path class="cls-6" d="M49.8,151.5c-.2,0-.4-.2-.4-.4,0-.2.1-.5.4-.5,1.4-.2,2.6-.4,4.2-.5.3,0,.3.2.4.4,0,.2,0,.5-.3.5-1.5.1-2.8.3-4.1.5h0Z"/>
        <path class="cls-5" d="M50.4,150.2c-4.8.5-8,1.4-8,2.5s.5.8,1.4,1.2c1.9-.4,4.1-.7,6.6-1v-2.7Z"/>
        <path class="cls-5" d="M57.2,149.9c-.8,0-1.5,0-2.2,0v2.7c.7,0,1.5,0,2.2,0,5.2,0,9.9.5,13.4,1.2.9-.4,1.4-.8,1.4-1.2,0-1.5-6.6-2.8-14.8-2.8Z"/>
        <path class="cls-5" d="M59.6,157.2c-.8,0-1.6,0-2.4,0-10.7,0-19.3-2-19.3-4.5v4.4c0,2.5,8.6,4.5,19.3,4.5s1.6,0,2.4,0v-4.4Z"/>
        <path class="cls-5" d="M67.5,156.5v4.4c5.4-.8,9-2.2,9-3.8v-4.4c0,1.6-3.6,3-9,3.8Z"/>
        <path class="cls-5" d="M57.2,170.7c5.9,0,10.6-1.1,10.6-2.5s-4.7-2.5-10.6-2.5-10.6,1.1-10.6,2.5,4.7,2.5,10.6,2.5Z"/>
        <path class="cls-4" d="M87.7,131.9c0,3.9-13.6,7-30.4,7s-30.4-3.2-30.4-7v7.3c0,3.9,13.6,7,30.4,7s30.4-3.2,30.4-7v-7.3Z"/>
        <path class="cls-2" d="M38.1,139.7c2,.4,3.7.6,4.7.7,4.3.5,9.1.8,14.3.8s9.9-.3,14.1-.8"/>
        <path class="cls-2" d="M38,142.2c1.4.3,2.9.5,4.5.7,4.4.6,9.4.9,14.8.9s9.8-.3,13.9-.8"/>
        <path class="cls-6" d="M11,65.6c0-25.6,20.7-46.3,46.3-46.3s46.3,20.7,46.3,46.3-2.3,16.6-6.4,23.5c-8.1,13.7-22.9,22.8-39.9,22.8s-31.9-9.2-39.9-22.8c-4.1-6.9-6.4-14.9-6.4-23.5Z"/>
        <path class="cls-7" d="M61.4,21.8c26.8,6.8,32.6,32.7,29.4,50.3-.9,4.9,6,14.9,8.6,6.1,1.2-4.1,1.8-8.3,1.8-12.6,0-22.9-17.5-41.7-39.9-43.8h0Z"/>
        <path class="cls-5" d="M97.2,89.1c-2.7,4.5-19.5,8.1-39.9,8.1s-37.2-3.5-39.9-8.1c8.1,13.7,22.9,22.8,39.9,22.8s31.9-9.2,39.9-22.8Z"/>
        <path class="cls-2" d="M17,87.9c0,.4.1.9.4,1.3,2.7,4.5,19.5,8.1,39.9,8.1s37.2-3.5,39.9-8.1c.2-.4.4-.8.4-1.3,0-5.2-18-9.3-40.3-9.3s-40.3,4.2-40.3,9.3Z"/>
        <path class="cls-2" d="M57.3,95.9c18,0,32.6-3.2,32.6-7.2s-14.6-7.2-32.6-7.2-32.6,3.2-32.6,7.2,14.6,7.2,32.6,7.2Z"/>
        <path class="cls-2" d="M57.3,94.9c11.4,0,20.7-2,20.7-4.6s-9.3-4.6-20.7-4.6-20.7,2-20.7,4.6,9.3,4.6,20.7,4.6Z"/>
        <path class="cls-2" d="M57.3,94.3c6,0,10.8-1.1,10.8-2.4s-4.8-2.4-10.8-2.4-10.8,1.1-10.8,2.4,4.8,2.4,10.8,2.4Z"/>
        <g class="cls-9">
          <path d="M36.8,65.2h10.1c1.9-5.7,6.8-9.8,12.6-10.3.4,0,.8,0,1.1,0h-21.3l-2.6,10.4Z"/>
          <polygon points="61.8 85.9 71.9 85.9 74.5 75.5 74.8 74.6 74.9 74.2 77.2 65.2 67.1 65.2 65.4 71.6 65.4 71.9 64.5 75.5 61.9 85.9 61.8 85.9"/>
          <polygon points="69.7 54.8 79.8 54.8 81.1 49.6 83.7 39.2 73.6 39.2 71 49.6 69.7 54.8"/>
          <polygon points="40.7 49.6 65.9 49.6 68.5 39.2 43.3 39.2 40.7 49.6"/>
          <path d="M44.3,75.5h10.1l1.6-6.5v-.2c.7-2.1,2.5-3.6,4.7-3.6h16.4l2.6-10.4h-19c-.4,0-.8,0-1.1,0-5.9.5-10.8,4.6-12.6,10.3-.1.4-.2.8-.3,1.1v.2c0,0-2.3,9-2.3,9Z"/>
          <polygon points="31.6 85.9 51.8 85.9 52.4 83.2 54.4 75.5 34.2 75.5 31.6 85.9"/>
        </g>
        <path class="cls-7" d="M23.5,59.7c8.6-5.5,14.2-12.8,17-19.6.9-2.2,5.6-17.9-1.9-14.3-12,5.6-21,16.5-24.2,29.6-.3,1.3-4.2,12.8,9,4.3h0Z"/>
        <path class="cls-3" d="M69.1,158.5c3.2-.6,5.5-1.4,6.7-2.3"/>
        <path class="cls-3" d="M38.6,156.2c2.3,1.9,9.8,3.2,18.6,3.2h1"/>
        <path class="cls-5" d="M96.4,114.2c0-.3,0-.5.1-.5s.1.2.1.5v3.7c0,.3,0,.5-.1.5s-.1-.2-.1-.5v-3.7Z"/>
        <path class="cls-5" d="M93.9,115.6c0-.3,0-.5.1-.5s.1.2.1.5v3.7c0,.3,0,.5-.1.5s-.1-.2-.1-.5v-3.7Z"/>
        <path class="cls-5" d="M90.6,116.9c0-.3,0-.5.2-.5s.2.2.2.5v3.7c0,.3,0,.5-.2.5s-.2-.2-.2-.5v-3.7Z"/>
        <path class="cls-5" d="M86.4,118c0-.3,0-.5.2-.5s.2.2.2.5v3.7c0,.3,0,.5-.2.5s-.2-.2-.2-.5v-3.7Z"/>
        <path class="cls-5" d="M81.6,119c0-.3,0-.5.2-.5s.2.2.2.5v3.7c0,.3,0,.5-.2.5s-.2-.2-.2-.5v-3.7Z"/>
        <path class="cls-5" d="M76.1,119.8c0-.3,0-.5.2-.5s.2.2.2.5v3.7c0,.3,0,.5-.2.5s-.2-.2-.2-.5v-3.7Z"/>
        <path class="cls-5" d="M70.2,120.4c0-.3,0-.5.2-.5s.2.2.2.5v3.7c0,.3,0,.5-.2.5s-.2-.2-.2-.5v-3.7Z"/>
        <path class="cls-5" d="M63.7,120.8c0-.3,0-.5.2-.5s.2.2.2.5v3.7c0,.3,0,.5-.2.5s-.2-.2-.2-.5v-3.7Z"/>
        <path class="cls-5" d="M56.9,120.9c0-.3.1-.5.2-.5s.2.2.2.5v3.7c0,.3-.1.5-.2.5s-.2-.2-.2-.5v-3.7Z"/>
        <path class="cls-2" d="M79.3,140.4c0,.9.6,1.4,1.3,1.2.7-.2,1.3-1.1,1.3-1.9s-.6-1.4-1.3-1.2c-.7.2-1.3,1.1-1.3,1.9Z"/>
        <path class="cls-8" d="M80,140.2c0,.4.3.7.6.6.3,0,.6-.5.6-.9s-.3-.7-.6-.6c-.3,0-.6.5-.6.9Z"/>
        <path class="cls-6" d="M35.2,140.4c0,.9-.6,1.4-1.3,1.2-.7-.2-1.3-1.1-1.3-1.9s.6-1.4,1.3-1.2c.7.2,1.3,1.1,1.3,1.9Z"/>
        <path class="cls-5" d="M35,140.1c0,.4-.3.7-.6.6-.3,0-.6-.5-.6-.9s.3-.7.6-.6c.3,0,.6.5.6.9Z"/>
        <path class="cls-2" d="M84,138.9c0,.9.4,1.4,1,1.1.5-.3,1-1.2,1-2.1s-.4-1.4-1-1.1c-.5.3-1,1.2-1,2.1Z"/>
        <path class="cls-8" d="M84.5,138.7c0,.4.2.6.4.5.2-.1.4-.6.4-1s-.2-.6-.4-.5c-.2.1-.4.6-.4,1h0Z"/>
        <path class="cls-6" d="M30.6,138.9c0,.9-.4,1.4-1,1.1-.5-.3-1-1.2-1-2.1s.4-1.4,1-1.1c.5.3,1,1.2,1,2.1Z"/>
        <path class="cls-5" d="M30.5,138.7c0,.4-.2.6-.4.5-.2-.1-.4-.6-.4-1s.2-.6.4-.5c.2.1.4.6.4,1h0Z"/>
        <path class="cls-2" d="M73.7,141.5c0,.9.7,1.4,1.6,1.3.9-.2,1.6-1,1.6-1.8s-.7-1.4-1.6-1.3c-.9.2-1.6,1-1.6,1.8Z"/>
        <path class="cls-8" d="M74.4,141.3c0,.4.4.7.8.7.4,0,.8-.5.8-.9s-.4-.7-.8-.7c-.4,0-.8.5-.8.9Z"/>
        <path class="cls-6" d="M57.2,155.5c-8.2,0-14.8-1.2-14.8-2.8s3.3-2,8-2.5l-3.6-1.3c-5.3.8-8.9,2.2-8.9,3.8,0,2.5,8.6,4.5,19.3,4.5s1.6,0,2.4,0l-.9-1.7c-.5,0-1,0-1.5,0h0Z"/>
        <path class="cls-6" d="M57.2,148.2c-1.2,0-2.4,0-3.6,0l1.3,1.6c.7,0,1.5,0,2.2,0,8.2,0,14.8,1.2,14.8,2.8s-3.3,2-8,2.5l3.5,1.3c5.4-.8,9-2.2,9-3.8,0-2.5-8.6-4.5-19.3-4.5h0Z"/>
        <path class="cls-2" d="M38.3,124.2c-2.1-.3-4.1-.5-6-.9-.4,0-.7-.4-.7-.8v-3.1c0-.5.4-.9.9-.8,1.8.3,3.7.6,5.7.8,3.9.5,8.2.8,12.7.9.4,0,.8.4.8.8v3.2c0,.5-.4.8-.8.8-4.5-.2-8.7-.5-12.6-.9h0Z"/>
        <path class="cls-6" d="M25.4,118l.9-.3c.3,0,.5,0,.9,0,1,.3,1.8,1.5,1.8,2.7s-.4,1.5-1,1.7l-.9.3-1.7-4.4Z"/>
        <path class="cls-4" d="M28.1,120.7c0,.9-.4,1.5-1,1.7-.3,0-.5,0-.8,0-1-.3-1.8-1.5-1.8-2.7s.4-1.5,1-1.7c.3,0,.5,0,.9,0,1,.3,1.8,1.5,1.8,2.7Z"/>
        <path class="cls-6" d="M21.8,120.4l1-.3c.6-.2,1-.8,1-1.7s-.8-2.4-1.8-2.6c-.3,0-.5,0-.7,0l-1,.3,1.5,4.3h0Z"/>
        <path class="cls-4" d="M22.8,118.8c0,.9-.4,1.5-1,1.7-.2,0-.5,0-.7,0-1-.3-1.8-1.5-1.8-2.6s.4-1.5,1-1.7c.2,0,.5,0,.7,0,1,.3,1.8,1.5,1.8,2.6h0Z"/>
        <path class="cls-5" d="M49.7,122.3c-7.9-.3-13.5-1.1-16.4-1.6-.4,0-.4.6,0,.7,2,.3,5.1.8,9.4,1.2,2.1.2,4.4.3,7,.4.5,0,.5-.6,0-.7h0Z"/>
        <path class="cls-6" d="M46.3,123.8l.6-.9c0-.1.1-.3.1-.4,0-.4-.3-.7-.7-.7-1,0-1.9-.1-2.8-.2-.2,0-.2,0-.2,0-.2,0-.4,0-.5.2l-.8.9,4.2,1.1h0Z"/>
        <path class="cls-4" d="M45.7,124.1c-1.1,0-2.1-.1-3.1-.2h0c-.4,0-.6-.3-.6-.7s0-.4.2-.5c.1-.1.3-.2.5-.2h0c.9,0,2,.2,3,.2.2,0,.4,0,.6.3,0,.1.1.3.1.4s0,.3-.1.4c0,0-.2.3-.6.3h0Z"/>
      </g>
    </g>
  </g>
</svg>