<svg width="30" height="30" viewBox="0 0 30 30" fill="none" xmlns="http://www.w3.org/2000/svg">
<path fill-rule="evenodd" clip-rule="evenodd" d="M7.93892 7.94283C9.81068 6.07107 12.3493 5.01953 14.9964 5.01953C17.6435 5.01953 20.1821 6.07107 22.0539 7.94283C23.9256 9.81459 24.9772 12.3532 24.9772 15.0003C24.9772 16.311 24.719 17.6089 24.2174 18.8198C23.7158 20.0307 22.9807 21.131 22.0539 22.0578C21.1271 22.9846 20.0268 23.7197 18.8159 24.2213C17.6049 24.7229 16.3071 24.9811 14.9964 24.9811C13.6857 24.9811 12.3878 24.7229 11.1769 24.2213C9.966 23.7197 8.86572 22.9846 7.93892 22.0578C7.01212 21.131 6.27695 20.0307 5.77537 18.8198C5.27379 17.6089 5.01563 16.311 5.01563 15.0003C5.01563 12.3532 6.06717 9.81459 7.93892 7.94283ZM8.99958 9.00349C10.4258 7.57726 12.3077 6.71148 14.3031 6.54789L13.94 6.887L13.9844 6.93463C12.9516 8.14086 12.1544 9.43659 11.6145 10.7881H7.63562C8.00595 10.1409 8.46312 9.53996 8.99958 9.00349ZM6.96101 12.2881C6.66873 13.1539 6.51563 14.0692 6.51563 15.0003C6.51563 15.9236 6.6664 16.8395 6.96081 17.7119H11.1273C10.9037 16.8229 10.7891 15.9161 10.7891 15.0002C10.7891 14.0843 10.9038 13.1773 11.1275 12.2881H6.96101ZM12.6818 12.2881C12.4207 13.1823 12.2891 14.0905 12.2891 15.0002C12.2891 15.9099 12.4207 16.8179 12.6817 17.7119H17.3189C17.5799 16.8179 17.7115 15.9099 17.7115 15.0002C17.7115 14.0905 17.5799 13.1823 17.3188 12.2881L12.6818 12.2881ZM18.8731 12.2881C19.0968 13.1773 19.2115 14.0843 19.2115 15.0002C19.2115 15.9161 19.0969 16.8229 18.8733 17.7119H23.032C23.3264 16.8395 23.4772 15.9236 23.4772 15.0003C23.4772 14.0692 23.3241 13.1539 23.0318 12.2881H18.8731ZM22.3572 10.7881H18.3861C17.8462 9.43659 17.049 8.14086 16.0162 6.93463L16.0606 6.887L15.6982 6.5486C17.6904 6.71396 19.569 7.5793 20.9932 9.00349C21.5297 9.53996 21.9868 10.1409 22.3572 10.7881ZM22.3575 19.2119H18.3863C17.8464 20.5636 17.0491 21.8595 16.0162 23.0659L16.0606 23.1135L15.6981 23.452C16.5714 23.3795 17.4296 23.1719 18.2418 22.8355C19.2708 22.4093 20.2057 21.7846 20.9932 20.9971C21.5263 20.4641 21.9847 19.8635 22.3575 19.2119ZM16.753 19.2119H13.2476C13.6847 20.152 14.2699 21.0679 15.0003 21.9441C15.7307 21.0679 16.3159 20.152 16.753 19.2119ZM11.6143 19.2119H7.6353C8.00809 19.8635 8.46654 20.4641 8.99958 20.9971C9.7871 21.7846 10.722 22.4093 11.7509 22.8355C12.5658 23.173 13.427 23.3808 14.3032 23.4527L13.94 23.1135L13.9844 23.0659C12.9515 21.8595 12.1542 20.5636 11.6143 19.2119ZM16.7527 10.7881L13.2479 10.7881C13.6849 9.84816 14.27 8.93246 15.0003 8.05635C15.7306 8.93246 16.3157 9.84816 16.7527 10.7881Z" fill="black"/>
</svg>
